<?xml version="1.0" encoding="UTF-8"?>
<svg version="1.1" xmlns="http://www.w3.org/2000/svg" width="300" height="300" viewBox="0 0 220 220">
<path d="M0 0 C1.84851563 -0.05607422 1.84851563 -0.05607422 3.734375 -0.11328125 C8.79405253 0.49950192 11.0497132 2.79213672 14.125 6.6875 C15.92602836 8.91229974 17.56974169 10.50334948 19.75 12.3125 C22.67517311 14.74188106 24.87168084 17.33960105 27.25 20.3125 C28.39965823 21.33200824 29.5679177 22.33077063 30.75 23.3125 C33.67517311 25.74188106 35.87168084 28.33960105 38.25 31.3125 C39.39965823 32.33200824 40.5679177 33.33077063 41.75 34.3125 C43.85833391 36.06424467 45.46846211 37.58733943 47.1875 39.75 C49.0842522 42.10657092 50.95794172 43.85812987 53.25 45.8125 C56.3262686 48.43554303 58.73244253 51.14525028 61.25 54.3125 C62.99954238 55.86351275 64.79518916 57.35002998 66.59375 58.84375 C68.77375655 60.77696335 70.43190552 63.0398819 72.25 65.3125 C73.39965823 66.33200824 74.5679177 67.33077063 75.75 68.3125 C78.67517311 70.74188106 80.87168084 73.33960105 83.25 76.3125 C84.39965823 77.33200824 85.5679177 78.33077063 86.75 79.3125 C89.66926607 81.74108092 91.92856616 84.29463601 94.25 87.3125 C95.89740076 88.9982124 97.56066078 90.6688186 99.25 92.3125 C101.15785043 94.22035043 100.70098528 97.1916108 100.83834839 99.74882507 C100.76617776 106.72360679 99.23677556 109.94985789 94.43377686 114.88171387 C93.576651 115.6900769 92.71952515 116.49843994 91.83642578 117.33129883 C90.94230988 118.2290654 90.04819397 119.12683197 89.12698364 120.05180359 C86.69455288 122.49246061 84.22160198 124.88773932 81.73838663 127.27656007 C79.14126537 129.78935393 76.58385987 132.34196225 74.021698 134.89030457 C69.17156857 139.70220746 64.28649185 144.47693657 59.38788497 149.23942345 C53.8153344 154.66100501 48.28609959 160.12591154 42.75875115 165.5935055 C34.17390339 174.08210807 25.56753304 182.54865427 16.92236328 190.97583008 C16.06928589 191.81050812 15.2162085 192.64518616 14.33728027 193.50515747 C13.56042877 194.26040207 12.78357727 195.01564667 11.98318481 195.79377747 C11.30658876 196.45311185 10.62999271 197.11244623 9.93289375 197.79176044 C6.31748921 201.05880489 2.68793596 200.64483215 -1.9921875 200.58984375 C-7.31337795 200.05470987 -9.90921529 197.30042204 -13.25 193.375 C-14.4875 191.8590625 -14.4875 191.8590625 -15.75 190.3125 C-16.74 189.4875 -17.73 188.6625 -18.75 187.8125 C-21.85705716 185.2232857 -24.16613738 182.41313514 -26.75 179.3125 C-27.74 178.4875 -28.73 177.6625 -29.75 176.8125 C-32.85705716 174.2232857 -35.16613738 171.41313514 -37.75 168.3125 C-38.74 167.4875 -39.73 166.6625 -40.75 165.8125 C-43.75 163.3125 -43.75 163.3125 -46.1875 160.375 C-48.17360266 158.00136511 -49.9033727 156.25366254 -52.25 154.3125 C-55.51338555 151.61298237 -58.04349745 148.57418256 -60.75 145.3125 C-61.74 144.4875 -62.73 143.6625 -63.75 142.8125 C-66.85705716 140.2232857 -69.16613738 137.41313514 -71.75 134.3125 C-72.74 133.4875 -73.73 132.6625 -74.75 131.8125 C-77.85705716 129.2232857 -80.16613738 126.41313514 -82.75 123.3125 C-83.74 122.4875 -84.73 121.6625 -85.75 120.8125 C-88.86157653 118.21951956 -91.20064209 115.45017128 -93.75 112.3125 C-94.6575 111.405 -95.565 110.4975 -96.5 109.5625 C-99.72563865 106.33686135 -99.94664414 104.52599937 -100.0625 100.0625 C-100.00927779 94.97312631 -99.24801724 92.18868126 -95.75 88.3125 C-94.09614767 86.96330468 -92.428298 85.63116272 -90.75 84.3125 C-89.72880935 83.16433591 -88.72998917 81.99602538 -87.75 80.8125 C-85.32061894 77.88732689 -82.72289895 75.69081916 -79.75 73.3125 C-78.73049176 72.16284177 -77.73172937 70.9945823 -76.75 69.8125 C-74.32061894 66.88732689 -71.72289895 64.69081916 -68.75 62.3125 C-67.73049176 61.16284177 -66.73172937 59.9945823 -65.75 58.8125 C-63.99825533 56.70416609 -62.47516057 55.09403789 -60.3125 53.375 C-57.95592908 51.4782478 -56.20437013 49.60455828 -54.25 47.3125 C-51.62695697 44.2362314 -48.91724972 41.83005747 -45.75 39.3125 C-44.73395288 38.11762859 -43.73499701 36.90809426 -42.75 35.6875 C-40.36172376 32.79805699 -38.46576646 31.29608524 -34.75 30.3125 C-33.57737096 31.43128383 -32.41204862 32.55773051 -31.25 33.6875 C-30.6003125 34.31398437 -29.950625 34.94046875 -29.28125 35.5859375 C-27.75 37.3125 -27.75 37.3125 -27.75 39.3125 C-27.20859375 39.54066406 -26.6671875 39.76882812 -26.109375 40.00390625 C-20.74681616 42.97817316 -16.38116109 47.42558814 -12.75 52.3125 C-12.15519746 55.37957702 -12.2746999 57.77584644 -12.609375 60.8671875 C-12.96653668 63.58322455 -12.96653668 63.58322455 -11.0625 66.75 C-8.9295614 69.40726663 -8.9295614 69.40726663 -6.14916992 70.69140625 C-2.16268131 75.04664607 -3.01743092 80.1217368 -3.05078125 85.8125 C-3.04362595 87.04033203 -3.03647064 88.26816406 -3.02909851 89.53320312 C-3.02131481 92.12889884 -3.02634757 94.7246599 -3.04321289 97.3203125 C-3.06243056 101.29812748 -3.02306618 105.27244784 -2.97851562 109.25 C-2.97822527 111.77083542 -2.98136511 114.29167405 -2.98828125 116.8125 C-2.96535759 118.60010742 -2.96535759 118.60010742 -2.94197083 120.42382812 C-2.98560818 123.50620825 -3.07050106 126.30546229 -3.75 129.3125 C-6.68041992 131.91796875 -6.68041992 131.91796875 -9.75 133.3125 C-12.6724897 137.69623454 -13.309524 141.09027599 -12.75 146.3125 C-11.15093249 150.47007553 -9.60311765 153.0247114 -5.75 155.3125 C-0.99035537 156.89904821 3.38049999 157.07729546 8 155.1875 C11.42798414 152.33084655 13.88089172 149.63788214 14.6015625 145.09765625 C14.77446221 140.37435061 14.34659453 137.0726505 11.25 133.3125 C10.56327209 132.88672165 9.87654419 132.4609433 9.16900635 132.02226257 C7.25 130.3125 7.25 130.3125 6.76898193 127.82575989 C6.7823056 126.34350166 6.7823056 126.34350166 6.79589844 124.83129883 C6.79620056 123.71036331 6.79650269 122.5894278 6.79681396 121.43452454 C6.81745911 120.22507675 6.83810425 119.01562897 6.859375 117.76953125 C6.86503479 116.53079758 6.87069458 115.2920639 6.87652588 114.01579285 C6.89513776 110.72585722 6.93106332 107.43670519 6.9753418 104.14703369 C7.01629371 100.78887521 7.0345366 97.43060195 7.0546875 94.07226562 C7.09883612 87.48536987 7.16581041 80.89899904 7.25 74.3125 C12.59607139 76.86184289 16.34241731 80.83874059 20.5625 84.9375 C21.41134766 85.71996094 22.26019531 86.50242187 23.13476562 87.30859375 C29.10140864 93.12570893 29.10140864 93.12570893 29.53051758 96.55297852 C29.2265625 98.66796875 29.2265625 98.66796875 28.25 102.3125 C29.58626414 106.95012261 31.44902446 110.4700259 35.37890625 113.4296875 C39.22581169 115.24472013 43.13495201 115.03514257 47.25 114.3125 C51.65830916 112.14842096 54.37843553 109.88743538 56.25 105.3125 C56.78256641 99.72055268 56.47883266 96.10007946 53.25 91.3125 C50.78884453 89.46815651 50.78884453 89.46815651 48.25 88.3125 C47.59 87.9825 46.93 87.6525 46.25 87.3125 C44.70768315 87.47303856 43.16610705 87.64073575 41.625 87.8125 C38.12737127 87.873065 36.72349788 87.70176596 33.98828125 85.453125 C31.99407028 83.12844478 30.1261793 80.73256048 28.25 78.3125 C26.59106818 76.96955519 24.92523395 75.63505312 23.25 74.3125 C21.6428461 72.51296858 20.10234615 70.67409802 18.58203125 68.80078125 C17.29920055 67.18367455 17.29920055 67.18367455 15.25 66.3125 C14.9765625 64.0546875 14.9765625 64.0546875 14.875 61.1875 C14.449546 55.72750701 13.66605264 52.62751387 10.25 48.3125 C6.41528493 46.02641986 3.56678538 45.17792477 -0.8125 45.4375 C-4.95371089 45.30603299 -6.4191549 44.63627134 -9.38671875 41.8046875 C-11.59784446 39.38448686 -13.65163893 36.83053329 -15.75 34.3125 C-17.2264813 33.11874916 -18.70313532 31.92511358 -20.19140625 30.74609375 C-23.17829064 27.99875899 -25.43181056 24.62537356 -27.75 21.3125 C-26.19221619 19.5581027 -24.62905295 17.80903989 -23.0625 16.0625 C-22.19238281 15.08796875 -21.32226562 14.1134375 -20.42578125 13.109375 C-17.99657395 10.57023277 -15.52401125 8.45668566 -12.75 6.3125 C-11.0642876 4.66509924 -9.3936814 3.00183922 -7.75 1.3125 C-5.82815673 -0.60934327 -2.55710692 0.05039941 0 0 Z " fill="#F05033" transform="translate(99.75,-0.3125)"/>
</svg>
