<?xml version="1.0" encoding="UTF-8"?>
<svg version="1.1" xmlns="http://www.w3.org/2000/svg" width="447" height="447" viewBox="0 0 500 500">
<path d="M0 0 C147.51 0 295.02 0 447 0 C447 147.51 447 295.02 447 447 C299.49 447 151.98 447 0 447 C0 299.49 0 151.98 0 0 Z " fill="#FEFEFE" transform="translate(0,0)"/>
<path d="M0 0 C3.26685294 2.96922209 5.21893019 5.87029978 7.1875 9.8125 C7.69667969 10.80894531 8.20585937 11.80539063 8.73046875 12.83203125 C13.98478666 25.94357534 12.06264871 44.16014564 7 57 C2.56061711 66.57694085 -3.11568049 75.01316377 -10 83 C-11.23779246 84.53486265 -12.47557188 86.0697359 -13.71289062 87.60498047 C-17.47620851 92.23203406 -21.28912331 96.4339735 -25.8828125 100.234375 C-28.43902958 102.36612799 -30.8673329 104.61685701 -33.3125 106.875 C-36.99937996 110.24061656 -40.74818733 113.48017294 -44.625 116.625 C-45.53507812 117.36621094 -46.44515625 118.10742188 -47.3828125 118.87109375 C-49.01903224 120.20204861 -50.65905321 121.5283596 -52.3046875 122.84765625 C-63.74820961 132.43822371 -75.56441108 146.7133008 -77.22192383 162.05395508 C-78.43094489 184.80270892 -67.78760403 200.04348777 -54.96142578 217.859375 C-47.19845006 228.71042164 -47.19845006 228.71042164 -45 234 C-45.33 234.66 -45.66 235.32 -46 236 C-52.11487118 230.8352134 -57.85047566 225.33579675 -63.50854492 219.67675781 C-64.92668284 218.26080053 -66.35296665 216.85301711 -67.77929688 215.4453125 C-81.90956603 201.34450186 -99.92682884 182.16441235 -100.38110352 160.9362793 C-100.33340014 143.84893191 -92.40889696 133.18477618 -80.625 121.3125 C-75.05096014 115.81990951 -69.17540161 110.80871436 -63 106 C-61.92149661 105.15412806 -60.84338864 104.30775179 -59.765625 103.4609375 C-58.02673849 102.0956117 -56.2876639 100.73053377 -54.54760742 99.36669922 C-32.82447279 82.71952414 -32.82447279 82.71952414 -14 63 C-13.33226562 62.18144531 -12.66453125 61.36289063 -11.9765625 60.51953125 C-6.7671678 53.80928864 -3.5895844 47.06986765 -1 39 C-0.63003906 37.96230469 -0.26007813 36.92460938 0.12109375 35.85546875 C1.3289684 30.55692527 1.25065751 25.47742551 1.1875 20.0625 C1.18685547 19.01642578 1.18621094 17.97035156 1.18554688 16.89257812 C1.153195 11.17348538 0.85077967 5.65598324 0 0 Z " fill="#EA2D2E" transform="translate(267,6)"/>
<path d="M0 0 C0.51691406 0.48726563 1.03382813 0.97453125 1.56640625 1.4765625 C0.56287109 1.49783203 0.56287109 1.49783203 -0.4609375 1.51953125 C-12.98089429 2.14132776 -25.92815472 5.44827582 -36.43359375 12.4765625 C-37.42359375 13.1365625 -38.41359375 13.7965625 -39.43359375 14.4765625 C-39.30084829 16.92106928 -39.30084829 16.92106928 -38.43359375 19.4765625 C-32.25397835 23.34032203 -23.94159401 24.37020622 -16.890625 25.765625 C-14.49906674 26.25744828 -12.12315721 26.82964071 -9.765625 27.46484375 C9.91291879 32.44032453 31.38469037 32.2394734 51.56640625 32.4765625 C52.48605164 32.48751953 53.40569702 32.49847656 54.35321045 32.50976562 C84.14265883 32.84230128 113.84317746 32.60921062 143.56640625 30.4765625 C144.30890625 30.42328796 145.05140625 30.37001343 145.81640625 30.31512451 C161.93766617 29.13712052 177.8094248 27.48958092 193.59472656 23.90234375 C196.44271017 23.28732599 199.31121427 22.849356 202.19140625 22.4140625 C211.67697106 20.86430825 220.58930761 18.45366114 227.56640625 11.4765625 C227.80853498 9.49527742 227.80853498 9.49527742 227.69140625 7.3515625 C227.62953125 5.4334375 227.62953125 5.4334375 227.56640625 3.4765625 C230.42736266 4.7590602 232.68006543 5.93000239 234.56640625 8.4765625 C235.06640625 10.8515625 235.06640625 10.8515625 234.56640625 13.4765625 C226.5844487 23.10186426 214.27675669 27.27959128 202.56469727 30.38989258 C199.96222523 31.08577075 197.39442938 31.83186184 194.81445312 32.61401367 C181.62143428 36.59418796 168.26443542 38.89822155 154.62890625 40.7890625 C153.36493011 40.96498932 152.10095398 41.14091614 150.79867554 41.32217407 C124.71587318 44.85744684 98.6665573 45.21595343 72.37890625 45.1640625 C70.92693785 45.16344503 70.92693785 45.16344503 69.44563675 45.16281509 C35.21806455 45.1447589 1.71146645 42.8508174 -32.17675781 37.9453125 C-35.18488653 37.51235844 -38.19516437 37.10126437 -41.20703125 36.6953125 C-50.35559377 35.41962679 -58.34149721 33.99253392 -66.05859375 28.6640625 C-67.43359375 26.4765625 -67.43359375 26.4765625 -67.62109375 23.1015625 C-65.16234638 15.59591264 -58.42707402 12.73489592 -51.80859375 9.3515625 C-44.87813441 5.93824339 -37.92414132 3.40750067 -30.43359375 1.4765625 C-29.38816406 1.17878906 -28.34273437 0.88101562 -27.265625 0.57421875 C-19.62842651 -1.44438304 -7.12440941 -4.45990316 0 0 Z " fill="#0876BE" transform="translate(130.43359375,375.5234375)"/>
<path d="M0 0 C-0.48243164 0.29132813 -0.96486328 0.58265625 -1.46191406 0.8828125 C-41.58500746 23.2417684 -41.58500746 23.2417684 -68 59 C-70.43461903 74.66343391 -61.09763983 86.3188876 -52.5324707 98.42822266 C-45.92821354 107.76747702 -43.19089379 115.4757234 -45 127 C-49.71460692 142.33049054 -62.12600891 152.38354927 -75 161 C-75.66 160.67 -76.32 160.34 -77 160 C-76.52949219 159.38253906 -76.05898437 158.76507813 -75.57421875 158.12890625 C-69.72726052 150.17559039 -66.76169246 143.64899037 -66.50390625 133.75 C-67.92880869 125.85132821 -72.31344248 119.93039955 -77.3125 113.875 C-89.01658983 99.15689012 -94.65514618 83.86953297 -93 65 C-91.33797533 56.30066837 -86.43721405 49.80452918 -81 43 C-80.53980469 42.37480469 -80.07960937 41.74960938 -79.60546875 41.10546875 C-67.94233324 26.05967158 -19.455212 -6.48507067 0 0 Z " fill="#EA2E2F" transform="translate(318,97)"/>
<path d="M0 0 C-0.515625 0.4125 -1.03125 0.825 -1.5625 1.25 C-3.18844787 2.88136158 -3.18844787 2.88136158 -3.125 5 C-1.346809 8.16122844 1.69706535 8.92242037 5 10 C34.58788249 16.73570954 67.67015141 14.54431548 97.09204102 8.34545898 C101.79045977 7.78729741 105.73794398 8.5973836 109.91015625 10.77734375 C110.59013672 11.12603516 111.27011719 11.47472656 111.97070312 11.83398438 C112.66099609 12.19814453 113.35128906 12.56230469 114.0625 12.9375 C120.40788338 16.23503219 120.40788338 16.23503219 127 19 C123.52102043 22.07652692 119.68553195 23.23129338 115.3125 24.5 C113.86041086 24.93400611 112.40858509 25.36889442 110.95703125 25.8046875 C110.26561035 26.01061523 109.57418945 26.21654297 108.86181641 26.42871094 C106.71256508 27.08819797 104.60889985 27.84695928 102.5 28.625 C89.64209394 32.96855368 75.54424501 34.10339881 62.05859375 34.2734375 C61.14096252 34.28601089 60.2233313 34.29858429 59.27789307 34.3115387 C2.85288722 34.93557731 2.85288722 34.93557731 -16.3359375 20.20703125 C-18.87370307 17.60610862 -19.94362319 15.55249271 -20.3125 11.9375 C-17.20264854 4.97735626 -10.94330499 2.22441466 -4.13671875 -0.43359375 C-2 -1 -2 -1 0 0 Z " fill="#0575BD" transform="translate(165,344)"/>
<path d="M0 0 C-4.61110837 3.07407225 -9.531536 4.77329527 -14.9375 5.8125 C-19.64004724 6.79904837 -24.1441979 8.26829186 -28.6875 9.8125 C-29.41251709 10.04880127 -30.13753418 10.28510254 -30.88452148 10.52856445 C-35.83618262 12.25337698 -39.1530143 14.43169358 -43 18 C-42.80768385 19.96423782 -42.80768385 19.96423782 -42 22 C-36.66906108 25.06986913 -29.92008962 25.64571885 -23.890625 26.17578125 C-23.03454651 26.25556717 -22.17846802 26.33535309 -21.29644775 26.41755676 C-10.79117374 27.30735776 -0.28451156 27.26259726 10.25 27.1875 C12.35847925 27.17793356 14.46695908 27.16849464 16.57543945 27.15917969 C22.38392273 27.12754979 28.1918661 27.0701393 34 27 C35.24894043 26.98598145 36.49788086 26.97196289 37.78466797 26.95751953 C68.56636308 26.48032208 101.29091515 24.05933588 131.484375 17.88085938 C134.93365017 17.21677479 137.6593132 16.72368632 141 18 C140.04738281 18.47050781 139.09476563 18.94101562 138.11328125 19.42578125 C136.84630039 20.05457916 135.57937631 20.68349148 134.3125 21.3125 C133.68666016 21.62123047 133.06082031 21.92996094 132.41601562 22.24804688 C129.74930047 23.57442352 127.15735501 24.89677485 124.66503906 26.53173828 C121.66336948 28.18546134 119.1819192 28.74593419 115.80859375 29.31640625 C114.61556641 29.52330078 113.42253906 29.73019531 112.19335938 29.94335938 C110.95392578 30.14767578 109.71449219 30.35199219 108.4375 30.5625 C107.22513672 30.77068359 106.01277344 30.97886719 104.76367188 31.19335938 C102.33608287 31.60858774 99.9074385 32.01769264 97.4777832 32.4206543 C95.29490272 32.78428893 93.11346358 33.15680476 90.93432617 33.54223633 C83.13208527 34.90845837 75.31904815 35.7910797 67.4375 36.5625 C66.21998047 36.68818359 65.00246094 36.81386719 63.74804688 36.94335938 C46.77989779 38.63045801 29.85779082 39.18351106 12.8125 39.125 C11.91825317 39.12245209 11.02400635 39.11990417 10.10266113 39.11727905 C4.8255434 39.09971998 -0.45127591 39.06668552 -5.72821045 39.01959229 C-7.73430755 39.00229138 -9.74044483 38.98979278 -11.74658203 38.97802734 C-60.38772546 38.54366569 -60.38772546 38.54366569 -73.7980957 27.5222168 C-75 26 -75 26 -75.0625 23.625 C-73.29965766 19.26974244 -70.16042721 17.07801358 -66.08203125 15.04296875 C-63.41835485 13.93506795 -60.71529012 12.97514047 -58 12 C-56.64124109 11.45875022 -55.28322755 10.91562719 -53.92578125 10.37109375 C-37.0917653 3.83376803 -18.13901855 -0.64295125 0 0 Z " fill="#0A77BE" transform="translate(173,245)"/>
<path d="M0 0 C-0.495 0.515625 -0.99 1.03125 -1.5 1.5625 C-3.49649241 4.80680017 -3.21564385 7.26217334 -3 11 C3.41019097 13.11516134 9.52210293 14.62424627 16.25 15.1875 C17.18328125 15.26645508 18.1165625 15.34541016 19.078125 15.42675781 C51.29161747 17.706573 83.9445855 16.8322619 115.7590332 11.32128906 C125.70215925 9.60614643 125.70215925 9.60614643 130 10 C132.3125 11.6875 132.3125 11.6875 135 14 C137.95065356 15.75942687 140.96688206 17.38762358 144 19 C144 19.66 144 20.32 144 21 C140.25315351 22.64068501 136.69970748 23.54422065 132.67578125 24.25390625 C131.48275391 24.46853516 130.28972656 24.68316406 129.06054688 24.90429688 C127.82369141 25.12150391 126.58683594 25.33871094 125.3125 25.5625 C122.84977926 25.99859355 120.38751268 26.43726229 117.92578125 26.87890625 C116.83692627 27.0704126 115.74807129 27.26191895 114.6262207 27.45922852 C112.03468744 27.87530846 112.03468744 27.87530846 110 29 C91.3190405 32.2195019 72.43083847 33.39939286 53.5 33.375 C52.662341 33.37654083 51.82468201 33.37808167 50.9616394 33.37966919 C32.10433023 33.37573282 10.6931054 33.02520361 -7 26 C-7.78375 25.7009375 -8.5675 25.401875 -9.375 25.09375 C-14.14262661 23.1490602 -17.86329882 21.24972417 -21 17 C-21.625 14 -21.625 14 -21 11 C-16.81465566 5.63752756 -7.07727304 -2.35909101 0 0 Z " fill="#0475BD" transform="translate(154,297)"/>
<path d="M0 0 C1 3 1 3 -0.4375 6.25 C-9.41791759 20.57661936 -28.41315337 26.30031309 -44 30 C-47.83159904 30.85526764 -51.67363695 31.61620115 -55.53515625 32.32421875 C-57.95268415 32.79573208 -60.35415505 33.35421943 -62.73706055 33.97753906 C-68.88322803 35.52505788 -75.15917256 36.10894333 -81.44628906 36.80493164 C-83.67665997 37.05430016 -85.90455024 37.32042949 -88.1328125 37.58789062 C-111.84649282 40.32124167 -135.79189079 40.16961815 -159.63208008 40.13037109 C-163.14977217 40.12460219 -166.66738909 40.12802233 -170.18507862 40.13394356 C-172.96588182 40.13759454 -175.74666776 40.13639121 -178.52747154 40.13381577 C-180.4386284 40.13285325 -182.34978602 40.1358132 -184.26094055 40.13894653 C-196.61738083 40.10621092 -208.8739199 39.33119491 -221.125 37.6875 C-222.08784912 37.55923828 -223.05069824 37.43097656 -224.04272461 37.29882812 C-230.91084413 36.35296978 -237.74375098 35.25265715 -244.5625 34 C-245.42439941 33.84619873 -246.28629883 33.69239746 -247.17431641 33.53393555 C-251.89142856 32.62795349 -255.77772403 31.40881871 -260 29 C-256.62097892 27.88941265 -254.2817813 28.14735503 -250.8125 28.8125 C-244.22754008 29.90629806 -237.65305077 30.53256578 -231 31.0625 C-230.03553955 31.14153564 -229.0710791 31.22057129 -228.07739258 31.30200195 C-210.99600787 32.62297713 -193.93552712 33.16755291 -176.80615234 33.13037109 C-173.86941401 33.12498976 -170.93282765 33.13037169 -167.99609375 33.13671875 C-158.82214354 33.1403602 -149.67083776 33.02530013 -140.5078125 32.5546875 C-139.74838348 32.51594513 -138.98895447 32.47720276 -138.20651245 32.43728638 C-133.75834674 32.18059529 -129.41082917 31.65198891 -125 31 C-123.01807975 30.92719477 -121.03596887 30.85628978 -119.05322266 30.8112793 C-102.56743424 30.37266016 -86.26176594 27.56514174 -70 25 C-68.85982422 24.82033691 -67.71964844 24.64067383 -66.54492188 24.45556641 C-54.40425533 22.49795103 -42.66077564 19.92271321 -31 16 C-30.19868652 15.7328418 -29.39737305 15.46568359 -28.57177734 15.19042969 C-15.87503571 10.96722446 -15.87503571 10.96722446 -4.49609375 4.06640625 C-3 3 -3 3 -1 3 C-0.67 2.01 -0.34 1.02 0 0 Z " fill="#0976BE" transform="translate(383,401)"/>
<path d="M0 0 C6.76813458 5.10843279 12.41548403 11.27478598 13.75 19.875 C15.01965236 30.96682407 11.46234594 39.69143541 4.8125 48.5 C-9.45616887 64.89128077 -32.4185883 75.18161033 -53.25 79.875 C-53.91 79.545 -54.57 79.215 -55.25 78.875 C-54.45078125 78.3903125 -53.6515625 77.905625 -52.828125 77.40625 C-27.96117337 62.53341413 -27.96117337 62.53341413 -9.25 40.875 C-8.79753906 40.14925781 -8.34507812 39.42351562 -7.87890625 38.67578125 C-4.3832935 32.13209095 -4.19761947 25.11833787 -5.25 17.875 C-7.77542294 10.52562464 -12.1947283 6.6109983 -18.8828125 2.93359375 C-26.96624058 -0.6812726 -37.05076572 -0.17587787 -45.25 2.875 C-44.25 -0.125 -44.25 -0.125 -42.6484375 -1.22265625 C-28.67553933 -7.88540885 -13.3629892 -8.68695075 0 0 Z " fill="#0675BD" transform="translate(370.25,247.125)"/>
<path d="M0 0 C2.27113803 0.14100857 4.54190725 0.28796755 6.8125 0.4375 C8.07707031 0.51871094 9.34164062 0.59992188 10.64453125 0.68359375 C14 1 14 1 17 2 C19.05893621 2.22325814 21.12233653 2.40705759 23.1875 2.5625 C24.27417969 2.64628906 25.36085937 2.73007812 26.48046875 2.81640625 C27.72763672 2.90728516 27.72763672 2.90728516 29 3 C28.01 3.66 27.02 4.32 26 5 C26.33 5.66 26.66 6.32 27 7 C7.24014828 5.9999377 7.24014828 5.9999377 0 0 Z " fill="#1F7DC1" transform="translate(123,429)"/>
<path d="M0 0 C0.66 0.66 1.32 1.32 2 2 C0.85660156 2.06058594 -0.28679687 2.12117187 -1.46484375 2.18359375 C-2.95574305 2.26798428 -4.44662775 2.35263302 -5.9375 2.4375 C-7.06961914 2.49647461 -7.06961914 2.49647461 -8.22460938 2.55664062 C-11.91944187 2.44038024 -11.91944187 2.44038024 -15 4 C-14.34 4.66 -13.68 5.32 -13 6 C-14.22976563 6.19916016 -14.22976563 6.19916016 -15.484375 6.40234375 C-17.10085938 6.66724609 -17.10085938 6.66724609 -18.75 6.9375 C-20.35101563 7.19853516 -20.35101563 7.19853516 -21.984375 7.46484375 C-24.36347593 7.88704171 -26.66915211 8.37202884 -29 9 C-28 6 -28 6 -26.3984375 4.90234375 C-17.64732246 0.72951476 -9.76046588 -0.92826808 0 0 Z " fill="#3186C5" transform="translate(354,241)"/>
<path d="M0 0 C2.41734542 -0.08117951 4.83194949 -0.14056926 7.25 -0.1875 C7.93191406 -0.21263672 8.61382812 -0.23777344 9.31640625 -0.26367188 C12.59199289 -0.31137459 14.65348556 -0.21085076 17.484375 1.51171875 C17.98453125 2.00285156 18.4846875 2.49398438 19 3 C16.95863605 3.05451714 14.91684144 3.09302485 12.875 3.125 C11.16957031 3.15980469 11.16957031 3.15980469 9.4296875 3.1953125 C5.94242233 2.99672109 3.2446138 2.2524801 0 1 C0 0.67 0 0.34 0 0 Z " fill="#418DC8" transform="translate(113,374)"/>
<path d="M0 0 C2.52588702 2.36292656 3.88820837 3.66462511 5 7 C4.67 7.33 4.34 7.66 4 8 C3.84344973 9.48638992 3.74933057 10.97949127 3.68359375 12.47265625 C3.64169922 13.37177734 3.59980469 14.27089844 3.55664062 15.19726562 C3.51732422 16.14279297 3.47800781 17.08832031 3.4375 18.0625 C3.39431641 19.01189453 3.35113281 19.96128906 3.30664062 20.93945312 C3.20020724 23.29281353 3.09818992 25.64628354 3 28 C2.67 28 2.34 28 2 28 C1.97494385 27.43603516 1.9498877 26.87207031 1.92407227 26.29101562 C1.80681699 23.69385118 1.68468734 21.0969369 1.5625 18.5 C1.50352539 17.1696875 1.50352539 17.1696875 1.44335938 15.8125 C1.18915913 10.49384873 0.73323663 5.2743744 0 0 Z " fill="#F07576" transform="translate(267,6)"/>
<path d="M0 0 C1.22589844 0.01353516 1.22589844 0.01353516 2.4765625 0.02734375 C3.41628906 0.04474609 3.41628906 0.04474609 4.375 0.0625 C1.98439149 1.65623901 0.06671821 2.71547076 -2.5625 3.75 C-3.23152344 4.02199219 -3.90054688 4.29398438 -4.58984375 4.57421875 C-6.95330338 5.1412676 -8.3442799 4.82274003 -10.625 4.0625 C-9.635 4.0625 -8.645 4.0625 -7.625 4.0625 C-7.295 3.0725 -6.965 2.0825 -6.625 1.0625 C-4.21954362 -0.14022819 -2.67503047 -0.03821472 0 0 Z " fill="#60A1D2" transform="translate(168.625,244.9375)"/>
<path d="M0 0 C-4.95 2.97 -4.95 2.97 -10 6 C-10.99 4.68 -11.98 3.36 -13 2 C-11.39935157 1.46845258 -9.79431126 0.95011647 -8.1875 0.4375 C-7.29417969 0.14746094 -6.40085937 -0.14257812 -5.48046875 -0.44140625 C-3 -1 -3 -1 0 0 Z " fill="#EB3637" transform="translate(318,97)"/>
<path d="M0 0 C0.66 0.33 1.32 0.66 2 1 C-2.105466 4.97185616 -5.02968261 7.70876501 -11 8 C-7.71644638 4.32241995 -4.37221763 2.18610882 0 0 Z " fill="#2D84C4" transform="translate(326,319)"/>
<path d="M0 0 C-1.15173355 2.46800047 -2.04783565 4.04783565 -4 6 C-4.6425235 8.06874034 -4.6425235 8.06874034 -5 10 C-5.66 10 -6.32 10 -7 10 C-6.67506385 6.4257023 -6.36129314 4.44287547 -4.0625 1.625 C-2 0 -2 0 0 0 Z " fill="#1E7EC1" transform="translate(152,349)"/>
<path d="M0 0 C0 0.66 0 1.32 0 2 C-1.53125 3.2890625 -1.53125 3.2890625 -3.5 4.625 C-4.1496875 5.07101562 -4.799375 5.51703125 -5.46875 5.9765625 C-5.9740625 6.31429688 -6.479375 6.65203125 -7 7 C-7.66 6.67 -8.32 6.34 -9 6 C-4.5 0 -4.5 0 0 0 Z " fill="#EB3839" transform="translate(250,251)"/>
<path d="M0 0 C1 3 1 3 0.0625 5.1875 C-0.4634375 6.0846875 -0.4634375 6.0846875 -1 7 C-2.32 6.34 -3.64 5.68 -5 5 C-4.360625 4.731875 -3.72125 4.46375 -3.0625 4.1875 C-0.66868314 3.11332248 -0.66868314 3.11332248 0 0 Z " fill="#3184C4" transform="translate(383,401)"/>
<path d="M0 0 C-1.32 1.32 -2.64 2.64 -4 4 C-4 3.34 -4 2.68 -4 2 C-5.98 2.33 -7.96 2.66 -10 3 C-6.84439813 -0.15560187 -4.30999015 -1.43666338 0 0 Z " fill="#2C83C4" transform="translate(154,297)"/>
<path d="M0 0 C2.15377564 2.62198774 3.40072174 4.64404172 4 8 C2.35 7.01 0.7 6.02 -1 5 C-0.67 3.35 -0.34 1.7 0 0 Z " fill="#EC3F40" transform="translate(218,234)"/>
</svg>
