<?xml version="1.0" encoding="UTF-8"?>
<svg version="1.1" xmlns="http://www.w3.org/2000/svg" width="447" height="447" viewBox="0 0 500 500">
<path d="M0 0 C8.45119463 7.79116925 12.31102618 18.66063921 13 30 C13.4615867 54.63718987 -0.58633713 75.89487835 -16.4765625 93.62890625 C-18 95 -18 95 -20 95 C-20.37511719 95.87785156 -20.37511719 95.87785156 -20.7578125 96.7734375 C-22.16476141 99.29532706 -23.68712804 100.75086062 -25.875 102.625 C-26.55304688 103.21539062 -27.23109375 103.80578125 -27.9296875 104.4140625 C-29.88666469 105.91318087 -31.76048537 106.98569068 -34 108 C-34 108.66 -34 109.32 -34 110 C-36.1729233 111.84847311 -38.35402668 113.5921349 -40.625 115.3125 C-49.55515632 121.90017913 -49.55515632 121.90017913 -57.25 129.8125 C-58.703125 131.64453125 -58.703125 131.64453125 -60 133 C-60.66 133 -61.32 133 -62 133 C-62.26039063 133.55300781 -62.52078125 134.10601562 -62.7890625 134.67578125 C-64.15858651 137.30438378 -65.74085177 139.7148696 -67.375 142.1875 C-75.40877786 154.76428737 -78.45469238 165.64922497 -75.50390625 180.49609375 C-72.08683964 193.42151964 -64.73736763 204.13668602 -57.01171875 214.8046875 C-54.21069335 218.67671942 -51.53382241 222.61319622 -48.9375 226.625 C-48.24527344 227.68976563 -47.55304688 228.75453125 -46.83984375 229.8515625 C-44.8987883 233.17319879 -43.43997012 236.43820475 -42 240 C-45 240 -45 240 -47.6875 237.625 C-50 235 -50 235 -50 233 C-50.55163818 232.7721582 -51.10327637 232.54431641 -51.67163086 232.30957031 C-54.68268997 230.61602716 -56.79892421 228.4787152 -59.25390625 226.046875 C-59.75169083 225.55459915 -60.2494754 225.0623233 -60.76234436 224.55513 C-62.36913678 222.96001515 -63.96672884 221.35613641 -65.5625 219.75 C-66.10501404 219.20632782 -66.64752808 218.66265564 -67.20648193 218.10250854 C-75.10288135 210.17255419 -82.55340664 202.17497441 -89 193 C-89.59296875 192.20207031 -90.1859375 191.40414062 -90.796875 190.58203125 C-99.48875041 178.4263144 -102.51772991 165.19736597 -100.6796875 150.42578125 C-96.45330963 132.41903046 -77.75444397 117.83866272 -64 107 C-62.20614941 105.52348263 -60.41450939 104.04427584 -58.625 102.5625 C-54.62699428 99.28310872 -50.55637147 96.12391392 -46.4375 93 C-41.55257392 89.28204043 -36.91201763 85.37708679 -32.40234375 81.2109375 C-30.77237573 79.71083685 -29.11751547 78.23742558 -27.44140625 76.7890625 C-12.37338706 63.71635179 -0.98925666 47.16955168 1 27 C1.43523905 17.97157979 0.75522228 8.99523686 0 0 Z " fill="#E62D2E" transform="translate(267,5)"/>
<path d="M0 0 C0 0.66 0 1.32 0 2 C-1.00417969 2.09796875 -2.00835937 2.1959375 -3.04296875 2.296875 C-15.13556927 3.57822984 -30.0422898 5.45183937 -39.7421875 13.43359375 C-41.31305839 15.05504625 -41.31305839 15.05504625 -41 18 C-22.02250682 27.02775485 0.27566395 28.81598769 21 30 C21.73637695 30.04276062 22.47275391 30.08552124 23.23144531 30.12957764 C29.34072889 30.48266629 35.45116218 30.80962936 41.5625 31.125 C42.41079376 31.16974457 43.25908752 31.21448914 44.13308716 31.2605896 C64.87119719 32.3352785 85.51054231 32.12505824 106.25 31.1875 C107.2386908 31.14365173 108.22738159 31.09980347 109.24603271 31.05462646 C169.7538383 31.4497736 169.7538383 31.4497736 223.83203125 11.50390625 C225.33410476 9.92000064 225.33410476 9.92000064 224.75 7 C224.03515256 3.97763019 224.03515256 3.97763019 223 1 C228.02833307 2.43666659 230.16658908 4.74988363 233 9 C233.17366223 12.56007562 232.19783129 13.76020449 229.9375 16.5 C206.42544837 36.51025671 167.50017273 38.98492465 138.0625 42.1875 C137.28453064 42.27235657 136.50656128 42.35721313 135.70501709 42.44464111 C133.41975545 42.69107492 131.1339115 42.93094313 128.84765625 43.16796875 C127.86704475 43.27239037 127.86704475 43.27239037 126.86662292 43.37892151 C114.16736443 44.66123955 101.47497163 45.16007444 88.71484375 45.203125 C87.2970985 45.21015155 85.87935356 45.21723832 84.46160889 45.22438049 C79.95356792 45.2437763 75.44557849 45.24881557 70.9375 45.25 C69.78279898 45.25066278 69.78279898 45.25066278 68.60477066 45.25133896 C45.08091631 45.25841366 21.7187055 44.91591484 -1.68017578 42.26293945 C-4.17935815 41.97967073 -6.67946524 41.7055712 -9.1796875 41.43164062 C-14.5606827 40.83636203 -19.93732712 40.20811343 -25.3125 39.5625 C-26.12949371 39.4653067 -26.94648743 39.3681134 -27.78823853 39.26797485 C-36.56095648 38.20658704 -45.21553929 36.87151803 -53.8515625 34.984375 C-54.59565872 34.82300552 -55.33975494 34.66163605 -56.10639954 34.49537659 C-61.70985118 33.21363409 -65.74175354 31.8958425 -70 28 C-71.375 24.625 -71.375 24.625 -71 21 C-65.04492647 9.31889422 -46.97482921 4.50216349 -35.38671875 0.69799805 C-31.4938155 -0.44048501 -27.56746726 -1.1352006 -23.5625 -1.75 C-22.73355225 -1.87850342 -21.90460449 -2.00700684 -21.05053711 -2.1394043 C-13.56431098 -3.21264307 -6.8114604 -3.70287445 0 0 Z " fill="#0772B8" transform="translate(133,376)"/>
<path d="M0 0 C0 0.66 0 1.32 0 2 C-1.55371094 3.10986328 -1.55371094 3.10986328 -3.734375 4.3203125 C-4.53045166 4.76922852 -5.32652832 5.21814453 -6.14672852 5.68066406 C-7.00580811 6.15729492 -7.8648877 6.63392578 -8.75 7.125 C-16.40507818 11.46119749 -23.77226732 15.97715601 -31 21 C-31.845625 21.57105469 -32.69125 22.14210938 -33.5625 22.73046875 C-40.01169693 27.13406103 -46.0394635 31.95908913 -52 37 C-52.88171875 37.721875 -53.7634375 38.44375 -54.671875 39.1875 C-62.20251247 45.57713179 -70.10534708 54.33154641 -71.30078125 64.578125 C-71.3632877 78.82959518 -64.40675865 88.83955889 -56.37548828 100.13891602 C-51.23270837 107.383831 -46.51664073 114.72262049 -47 124 C-49.92497889 139.08979178 -59.23297506 150.91117191 -71.68359375 159.6640625 C-72.94976809 160.51415506 -74.22187642 161.3554814 -75.5 162.1875 C-76.41761108 162.78606812 -76.41761108 162.78606812 -77.35375977 163.39672852 C-78.86065339 164.33528623 -80.42678065 165.17744311 -82 166 C-82.66 165.67 -83.32 165.34 -84 165 C-83.55269531 164.55011719 -83.10539063 164.10023438 -82.64453125 163.63671875 C-75.97790974 156.5436609 -71.80539584 149.32497203 -71.375 139.4375 C-71.85762942 129.20575629 -76.72786358 123.07029422 -83.26171875 115.53540039 C-94.62117627 102.26923752 -98.93909248 87.15172676 -98 70 C-95.41952322 53.1440416 -82.61130155 40.19352274 -69.50488281 30.47412109 C-51.76073015 17.77455317 -22.47304608 0 0 0 Z " fill="#E72D2E" transform="translate(322,94)"/>
<path d="M0 0 C0.73154297 0.00451172 1.46308594 0.00902344 2.21679688 0.01367188 C3.99873419 0.02531852 5.78062863 0.04324809 7.5625 0.0625 C7.5625 0.7225 7.5625 1.3825 7.5625 2.0625 C6.29277344 2.35382813 5.02304688 2.64515625 3.71484375 2.9453125 C-17.38993758 7.35226704 -17.38993758 7.35226704 -35.4375 18.0625 C-35.4375 19.0525 -35.4375 20.0425 -35.4375 21.0625 C-17.6095094 27.78159193 2.61321747 26.38920854 21.3125 26.3125 C22.62641724 26.30973053 23.94033447 26.30696106 25.29406738 26.30410767 C42.99932763 26.26470782 60.60577158 26.07019573 78.24121094 24.37890625 C81.85913809 24.03424045 85.47947587 23.73513025 89.1015625 23.4375 C104.26565517 22.13634073 119.23043214 20.20628999 134.23388672 17.68823242 C135.49861816 17.47787354 136.76334961 17.26751465 138.06640625 17.05078125 C139.17830322 16.86040283 140.2902002 16.67002441 141.43579102 16.47387695 C144.51838156 16.0683046 147.45745604 15.98856342 150.5625 16.0625 C148.88171955 19.42406091 145.14551222 20.42123192 141.875 22 C141.16666016 22.34740234 140.45832031 22.69480469 139.72851562 23.05273438 C138.32088732 23.74290116 136.91055622 24.42758316 135.49755859 25.10668945 C133.88490134 25.9032518 132.30963217 26.77494911 130.74609375 27.6640625 C126.07737874 29.71486001 121.3101967 30.56626392 116.3125 31.5 C115.19584961 31.71172852 114.07919922 31.92345703 112.92871094 32.14160156 C103.26522022 33.89740334 93.56545372 35.17510381 83.8125 36.3125 C83.10460327 36.39531219 82.39670654 36.47812439 81.6673584 36.56344604 C67.12920959 38.24383112 52.70183018 39.22263798 38.05859375 39.23046875 C36.60433421 39.23369811 35.15007497 39.2370633 33.69581604 39.24055481 C30.66626231 39.24649005 27.63673685 39.24840066 24.60717773 39.24780273 C21.54819802 39.2477217 18.4893688 39.25463661 15.43041992 39.26831055 C-1.61207108 39.3432726 -18.50907635 39.32733417 -35.4375 37.0625 C-37.16987915 36.83542358 -37.16987915 36.83542358 -38.93725586 36.60375977 C-41.67990187 36.20693532 -44.39928887 35.74847636 -47.125 35.25 C-48.43114258 35.04020508 -48.43114258 35.04020508 -49.76367188 34.82617188 C-56.83830389 33.55663627 -64.24690227 31.25309773 -69.4375 26.0625 C-69.34920833 22.70741643 -68.76027092 21.38527092 -66.375 19 C-47.7184655 6.69462618 -22.19398193 -0.26397234 0 0 Z " fill="#0472BA" transform="translate(166.4375,244.9375)"/>
<path d="M0 0 C-0.309375 0.5775 -0.61875 1.155 -0.9375 1.75 C-1.92583364 3.84294184 -2.5168613 5.74535275 -3 8 C3.63949839 11.47783249 10.61946965 12.23407193 18 13 C18.84554443 13.08830078 19.69108887 13.17660156 20.56225586 13.26757812 C29.09813104 14.0713628 37.62012667 14.23967381 46.1875 14.25 C46.92556885 14.25167175 47.6636377 14.25334351 48.42407227 14.25506592 C63.87527279 14.25714739 79.19331387 13.18761997 94.3125 9.8359375 C101.69272946 8.3511748 106.55638297 10.49573468 113 13.875 C113.68578125 14.22691406 114.3715625 14.57882812 115.078125 14.94140625 C116.42085638 15.63070919 117.76206208 16.32299395 119.1015625 17.01855469 C121.72094881 18.37271274 124.35934033 19.68792222 127 21 C125.70288895 23.5942221 124.78474371 23.63703325 122.08984375 24.5859375 C120.86515381 25.0195459 120.86515381 25.0195459 119.61572266 25.46191406 C118.73190918 25.76323242 117.8480957 26.06455078 116.9375 26.375 C116.02790527 26.68663086 115.11831055 26.99826172 114.18115234 27.31933594 C76.57797378 39.98331162 29.20918462 44.13455509 -8 28 C-17.83069833 23.01397261 -17.83069833 23.01397261 -21 18 C-21.68632746 14.05361712 -21.236602 12.3997758 -19.1875 8.9375 C-14.98430608 4.3345787 -6.28404707 0 0 0 Z " fill="#0573B9" transform="translate(166,342)"/>
<path d="M0 0 C-1.12006837 2.32629584 -2.26315742 4.37593917 -3.75 6.5 C-5.30461151 8.87844183 -5.30461151 8.87844183 -4.33398438 11.05143738 C-1.63904229 14.98796281 3.64505561 15.53821352 8.11328125 16.41439819 C10.24023652 16.73202445 12.35886789 16.96728898 14.5 17.16796875 C15.70934204 17.28702827 15.70934204 17.28702827 16.94311523 17.40849304 C27.94065961 18.38597318 38.96795895 18.34778903 50 18.3125 C51.6837825 18.31076279 51.6837825 18.31076279 53.40158081 18.30899048 C70.13418646 18.27486147 86.46206139 17.71981551 103 15 C103.89912109 14.85594727 104.79824219 14.71189453 105.72460938 14.56347656 C110.59555191 13.77726252 110.59555191 13.77726252 115.45336914 12.91479492 C125.37561945 11.08361839 125.37561945 11.08361839 129.52734375 13.42578125 C130.32269531 14.04839844 131.11804688 14.67101562 131.9375 15.3125 C135.86966794 18.25121552 139.40729655 20.30269655 144 22 C144 22.66 144 23.32 144 24 C95.9773577 37.39145682 27.52155259 49.77287027 -18.8203125 25.52734375 C-21.15408651 23.89202899 -22.5172565 22.42544624 -24 20 C-24.5341846 16.41333196 -24.41629297 14.66457052 -22.48046875 11.57421875 C-19.30665885 8.28045383 -15.98360475 6.66097895 -11.875 4.75 C-11.14667969 4.399375 -10.41835937 4.04875 -9.66796875 3.6875 C-7.78336711 2.78177648 -5.8921162 1.88991839 -4 1 C-2 0 -2 0 0 0 Z " fill="#0672B8" transform="translate(156,294)"/>
<path d="M0 0 C0.66 0 1.32 0 2 0 C1.69818848 6.03623034 -1.13393217 9.62721454 -5 14 C-7.5 16.25 -7.5 16.25 -10 18 C-10.9075 18.63679688 -11.815 19.27359375 -12.75 19.9296875 C-33.50491055 33.15096465 -61.10861379 35.98124537 -85 39 C-86.94156982 39.24991699 -86.94156982 39.24991699 -88.92236328 39.50488281 C-140.37559751 45.73733727 -213.89080172 51.75317616 -262 30 C-262 29.34 -262 28.68 -262 28 C-260.98550781 28.10957031 -259.97101563 28.21914063 -258.92578125 28.33203125 C-254.43446236 28.80722199 -249.93901175 29.23481107 -245.44287109 29.66162109 C-243.1008066 29.8918084 -240.75997398 30.13481118 -238.42041016 30.38916016 C-178.69690204 36.84637669 -116.94104603 34.56619059 -58 23 C-57.0104834 22.80905762 -56.0209668 22.61811523 -55.00146484 22.42138672 C-39.81083926 19.44156849 -25.506111 14.96466821 -11.42578125 8.55078125 C-9.35147296 7.61178423 -7.25341858 6.72041184 -5.12109375 5.921875 C-2.83114385 5.16942577 -2.83114385 5.16942577 -1.75 2.9375 C-1.37875 1.9784375 -1.37875 1.9784375 -1 1 C-0.67 0.67 -0.34 0.34 0 0 Z " fill="#0571B9" transform="translate(383,400)"/>
<path d="M0 0 C6.94485714 5.68094635 10.74798069 12.03874442 11.8515625 21.04296875 C12.56063045 32.34181245 8.27120398 40.44602419 1.4140625 49.23046875 C-3.04002106 54.16011853 -8.52270164 57.90820075 -13.9609375 61.66796875 C-14.81945312 62.26609375 -15.67796875 62.86421875 -16.5625 63.48046875 C-28.83309246 71.29889934 -43.81825999 76.47064094 -57.9609375 79.66796875 C-57.9609375 78.67796875 -57.9609375 77.68796875 -57.9609375 76.66796875 C-55.64453125 74.9765625 -55.64453125 74.9765625 -52.3984375 73.10546875 C-51.20927293 72.40646998 -50.02184292 71.70451401 -48.8359375 71 C-48.206875 70.62697754 -47.5778125 70.25395508 -46.9296875 69.86962891 C-42.85823262 67.38454695 -38.93159642 64.67551682 -34.98803711 61.99389648 C-32.05811216 60.01443082 -29.18580624 58.13162489 -25.9609375 56.66796875 C-25.9609375 56.00796875 -25.9609375 55.34796875 -25.9609375 54.66796875 C-24.9503125 53.84296875 -23.9396875 53.01796875 -22.8984375 52.16796875 C-15.39742072 45.92980064 -9.7313889 37.39426919 -8.61328125 27.6328125 C-8.26495758 19.99648591 -9.17130169 13.79914607 -13.9609375 7.66796875 C-20.39647522 1.97772308 -27.15862642 -0.70808804 -35.71875 -0.53515625 C-38.93759064 -0.24355396 -41.88655597 0.7034569 -44.9609375 1.66796875 C-46.2809375 1.66796875 -47.6009375 1.66796875 -48.9609375 1.66796875 C-47.48571857 -2.22124478 -45.70152907 -3.58111605 -41.9609375 -5.33203125 C-27.83366387 -9.73232959 -12.16760629 -8.70650274 0 0 Z " fill="#0373BA" transform="translate(372.9609375,248.33203125)"/>
<path d="M0 0 C5.02833307 1.43666659 7.16658908 3.74988363 10 8 C10.17366223 11.56007562 9.19783129 12.76020449 6.9375 15.5 C-4.1644902 24.9485023 -18.08323574 28.65026167 -31.9375 32.3125 C-33.3752478 32.69426392 -33.3752478 32.69426392 -34.84204102 33.08374023 C-40.56794038 34.54468771 -46.11218798 35.48670357 -52 36 C-49.65085508 33.65085508 -48.04320554 33.26859643 -44.875 32.375 C-43.96492188 32.11460937 -43.05484375 31.85421875 -42.1171875 31.5859375 C-41.41851562 31.39257812 -40.71984375 31.19921875 -40 31 C-40 29.35 -40 27.7 -40 26 C-40.6084375 26.144375 -41.216875 26.28875 -41.84375 26.4375 C-50.28203556 28.22443106 -58.42651083 28.19362962 -67 28 C-67 27.67 -67 27.34 -67 27 C-66.00371582 26.86948242 -65.00743164 26.73896484 -63.98095703 26.60449219 C-28.00935458 24.57205605 -28.00935458 24.57205605 2 9 C1.73066742 5.76800909 1.02471429 3.07414286 0 0 Z " fill="#146FAE" transform="translate(356,377)"/>
<path d="M0 0 C0 3.11227195 -0.45627049 5.94152152 -1 9 C2.3 8.67 5.6 8.34 9 8 C9.33 7.01 9.66 6.02 10 5 C11.31647119 4.30062468 12.65022151 3.63270867 14 3 C14.33 2.34 14.66 1.68 15 1 C16.32 1.33 17.64 1.66 19 2 C1.54914525 16.27562526 -16.800239 25.98115451 -39 31 C-39 30.01 -39 29.02 -39 28 C-36.68359375 26.30859375 -36.68359375 26.30859375 -33.4375 24.4375 C-32.24833543 23.73850123 -31.06090542 23.03654526 -29.875 22.33203125 C-29.2459375 21.95900879 -28.616875 21.58598633 -27.96875 21.20166016 C-23.89729512 18.7165782 -19.97065892 16.00754807 -16.02709961 13.32592773 C-13.09717466 11.34646207 -10.22486874 9.46365614 -7 8 C-7 7.34 -7 6.68 -7 6 C-5.46875 4.4921875 -5.46875 4.4921875 -3.5 2.875 C-2.8503125 2.33617187 -2.200625 1.79734375 -1.53125 1.2421875 C-1.0259375 0.83226562 -0.520625 0.42234375 0 0 Z " fill="#0A70B5" transform="translate(354,297)"/>
<path d="M0 0 C1.01449219 0.10957031 2.02898437 0.21914063 3.07421875 0.33203125 C7.50871689 0.79999525 11.9464717 1.22993277 16.3853302 1.65434265 C18.86557218 1.89151891 21.34553042 2.13167564 23.82524109 2.37434387 C47.36477574 4.65516479 70.66650764 5.40029076 94.30773926 5.20599365 C98.5872721 5.17439615 102.8668667 5.16141612 107.14648438 5.14648438 C115.43114643 5.11502742 123.71552824 5.06436553 132 5 C131.67 5.66 131.34 6.32 131 7 C87.935 7.495 87.935 7.495 44 8 C47.6249797 9.81248985 49.37259584 10.31888915 53.25 10.625 C54.14203125 10.69976562 55.0340625 10.77453125 55.953125 10.8515625 C56.96632813 10.92503906 56.96632813 10.92503906 58 11 C58 11.33 58 11.66 58 12 C44.05275978 12.56415803 30.29957304 10.76771112 16.75 7.5625 C15.88133301 7.35729736 15.01266602 7.15209473 14.11767578 6.94067383 C9.16145748 5.7071669 4.63447289 4.14814081 0 2 C0 1.34 0 0.68 0 0 Z " fill="#156EAD" transform="translate(121,428)"/>
<path d="M0 0 C0 0.66 0 1.32 0 2 C-1.00417969 2.09796875 -2.00835937 2.1959375 -3.04296875 2.296875 C-15.13556927 3.57822984 -30.0422898 5.45183937 -39.7421875 13.43359375 C-41.31305839 15.05504625 -41.31305839 15.05504625 -41 18 C-39.05990478 19.70532323 -39.05990478 19.70532323 -37 21 C-38.98 20.67 -40.96 20.34 -43 20 C-44.04449911 16.86650268 -43.93423645 16.01031744 -43 13 C-43.66 12.67 -44.32 12.34 -45 12 C-44.67 10.35 -44.34 8.7 -44 7 C-44.53625 7.33 -45.0725 7.66 -45.625 8 C-48.5391061 9.22699204 -50.86867708 9.14233286 -54 9 C-42.39694009 -0.97091593 -13.84335742 -7.52558356 0 0 Z " fill="#0B71B2" transform="translate(133,376)"/>
<path d="M0 0 C8.42401391 7.76611129 12.36390145 18.67744586 13 30 C12.84718738 43.23912929 12.84718738 43.23912929 10 48 C10 45.36 10 42.72 10 40 C8.35 39.67 6.7 39.34 5 39 C5.495 36.03 5.495 36.03 6 33 C6.99 33.33 7.98 33.66 9 34 C9 34.66 9 35.32 9 36 C9.66 36 10.32 36 11 36 C11 34.02 11 32.04 11 30 C8.52733235 30.34444881 8.52733235 30.34444881 6 31 C5.67 31.66 5.34 32.32 5 33 C4.34 33 3.68 33 3 33 C2.67 34.32 2.34 35.64 2 37 C1.34 37 0.68 37 0 37 C0.0721875 36.42894531 0.144375 35.85789063 0.21875 35.26953125 C1.57079553 23.45791131 0.99251424 11.82155358 0 0 Z " fill="#DD2D2E" transform="translate(267,5)"/>
<path d="M0 0 C0.33 0.99 0.66 1.98 1 3 C2.32 3 3.64 3 5 3 C4.67 4.65 4.34 6.3 4 8 C6.97 8.33 9.94 8.66 13 9 C13 9.66 13 10.32 13 11 C13.598125 11.144375 14.19625 11.28875 14.8125 11.4375 C16.56150404 11.8872439 18.28677023 12.42892341 20 13 C23.64593517 13.30883216 27.29240545 13.50958559 30.9453125 13.71875 C34 14 34 14 35 15 C51.44869351 17.59199516 68.10672564 17.27647222 84.70611572 17.19561768 C87.54073223 17.18469351 90.37530125 17.18515249 93.20993519 17.18575573 C96.62565275 17.185418 100.04132414 17.17658923 103.45703125 17.16796875 C105.34298759 17.16629951 105.34298759 17.16629951 107.26704407 17.16459656 C112.96477414 17.13369148 118.38278215 16.92888174 124 16 C125.83083135 15.92614413 127.6638054 15.89150181 129.49609375 15.90234375 C130.46611328 15.90556641 131.43613281 15.90878906 132.43554688 15.91210938 C133.42619141 15.92048828 134.41683594 15.92886719 135.4375 15.9375 C136.45521484 15.94201172 137.47292969 15.94652344 138.52148438 15.95117188 C141.01438509 15.96287563 143.50716074 15.97927152 146 16 C146 16.33 146 16.66 146 17 C127.71180164 18.87566363 109.57573962 19.31774111 91.21484375 19.26074219 C87.48497299 19.2493065 83.75538637 19.25615874 80.02552509 19.26761913 C63.93526655 19.30962619 47.97907644 19.11818464 32 17 C30.84419434 16.84869629 29.68838867 16.69739258 28.49755859 16.54150391 C25.75592078 16.14424891 23.03729596 15.68580899 20.3125 15.1875 C19.44173828 15.04763672 18.57097656 14.90777344 17.67382812 14.76367188 C10.59919611 13.49413627 3.19059773 11.19059773 -2 6 C-1.44444444 1.44444444 -1.44444444 1.44444444 0 0 Z " fill="#2371A6" transform="translate(99,265)"/>
<path d="M0 0 C3.93711719 3.69850402 6.97659635 7.55382488 9.9375 12.0625 C10.3691748 12.71355713 10.80084961 13.36461426 11.24560547 14.03540039 C14.99979377 19.79870443 18.13373209 25.74314689 21 32 C18 32 18 32 15.3125 29.625 C13 27 13 27 13 25 C12.4112207 24.73719238 11.82244141 24.47438477 11.21582031 24.20361328 C8.89660759 22.94383819 7.39050597 21.61995979 5.546875 19.7421875 C4.928125 19.11699219 4.309375 18.49179688 3.671875 17.84765625 C3.03765625 17.19667969 2.4034375 16.54570312 1.75 15.875 C1.1003125 15.21628906 0.450625 14.55757812 -0.21875 13.87890625 C-1.81711727 12.25703357 -3.41061897 10.6306719 -5 9 C-4.01 8.67 -3.02 8.34 -2 8 C-1.1646875 8.928125 -1.1646875 8.928125 -0.3125 9.875 C2.06645178 12.06106379 3.96357096 12.98785699 7 14 C6.67 13.34 6.34 12.68 6 12 C5.34 12 4.68 12 4 12 C4 11.01 4 10.02 4 9 C2.68 8.34 1.36 7.68 0 7 C0 4.69 0 2.38 0 0 Z " fill="#D42F33" transform="translate(204,213)"/>
<path d="M0 0 C0 0.66 0 1.32 0 2 C-1.26972656 2.29132813 -2.53945312 2.58265625 -3.84765625 2.8828125 C-13.56997224 5.17710842 -22.7621439 7.78962216 -31.93359375 11.765625 C-34.65723116 12.86201917 -37.10978257 13.54620885 -40 14 C-40 13.34 -40 12.68 -40 12 C-39.16855469 11.66226562 -38.33710938 11.32453125 -37.48046875 10.9765625 C-36.39378906 10.53054687 -35.30710938 10.08453125 -34.1875 9.625 C-33.10855469 9.18414062 -32.02960938 8.74328125 -30.91796875 8.2890625 C-27.89269888 7.0520881 -27.89269888 7.0520881 -25 5 C-26.72985242 5.11512153 -28.45888751 5.24255677 -30.1875 5.375 C-31.15042969 5.44460937 -32.11335938 5.51421875 -33.10546875 5.5859375 C-36.03258962 6.00466194 -38.27778079 6.88319212 -41 8 C-43.45703125 8.4140625 -43.45703125 8.4140625 -45.8125 8.625 C-46.60269531 8.69976562 -47.39289063 8.77453125 -48.20703125 8.8515625 C-48.79871094 8.90054688 -49.39039062 8.94953125 -50 9 C-36.31958581 -0.12027613 -15.87672799 -0.36685636 0 0 Z " fill="#1D71AD" transform="translate(174,245)"/>
<path d="M0 0 C0.66 0 1.32 0 2 0 C1.69845864 6.03082722 -1.13013008 9.63471195 -5 14 C-7.625 16.3125 -7.625 16.3125 -10 18 C-10.721875 18.5775 -11.44375 19.155 -12.1875 19.75 C-14 21 -14 21 -16 21 C-15.67 19.02 -15.34 17.04 -15 15 C-11.86650268 13.95550089 -11.01031744 14.06576355 -8 15 C-8.33 14.34 -8.66 13.68 -9 13 C-9.33 12.34 -9.66 11.68 -10 11 C-10.99 11.66 -11.98 12.32 -13 13 C-14.7634375 13.495 -14.7634375 13.495 -16.5625 14 C-20.03073325 14.70977006 -20.03073325 14.70977006 -22 17 C-23.66666667 18.66666667 -25.33333333 20.33333333 -27 22 C-27.66 21.67 -28.32 21.34 -29 21 C-28.34 20.34 -27.68 19.68 -27 19 C-28.65 18.67 -30.3 18.34 -32 18 C-29.40806413 15.40806413 -27.04343946 14.89379172 -23.5625 13.75 C-17.70736718 11.76869469 -12.45520226 9.27620606 -7.109375 6.13671875 C-5 5 -5 5 -3 5 C-2.690625 4.360625 -2.38125 3.72125 -2.0625 3.0625 C-1 1 -1 1 0 0 Z " fill="#1370AE" transform="translate(383,400)"/>
<path d="M0 0 C1.01449219 0.10957031 2.02898437 0.21914063 3.07421875 0.33203125 C21.02014174 2.21744792 39.01285326 3.57665934 57 5 C57 5.33 57 5.66 57 6 C47.1 6 37.2 6 27 6 C27.33 6.99 27.66 7.98 28 9 C18.75650969 8.35133401 8.16355829 6.58557556 0 2 C0 1.34 0 0.68 0 0 Z " fill="#2171A6" transform="translate(121,428)"/>
<path d="M0 0 C9.57 0 19.14 0 29 0 C29 0.33 29 0.66 29 1 C9.11805954 2.97590826 -10.58028083 3.28307475 -30.53515625 3.19561768 C-33.68375982 3.18469415 -36.8323206 3.18515269 -39.98093987 3.18575573 C-43.06101672 3.18548212 -46.14106644 3.17997374 -49.22113419 3.17275429 C-50.66816124 3.16961884 -52.11519128 3.16761253 -53.56222153 3.16686058 C-62.09352384 3.15754095 -70.51092855 2.86968124 -79 2 C-79 1.67 -79 1.34 -79 1 C-52.65869666 0.77630197 -26.33318679 1.41298825 0 2 C0 1.34 0 0.68 0 0 Z " fill="#2571AC" transform="translate(258,439)"/>
<path d="M0 0 C0 0.66 0 1.32 0 2 C-1.00417969 2.09796875 -2.00835937 2.1959375 -3.04296875 2.296875 C-11.07245581 3.150341 -18.45459825 4.45515394 -26.1328125 7.09765625 C-29.07935699 8.02497475 -31.94595452 8.5604712 -35 9 C-34.4765625 7.109375 -34.4765625 7.109375 -33 5 C-30.38112024 4.21139351 -28.05078519 3.66963421 -25.375 3.25 C-24.66859375 3.12496094 -23.9621875 2.99992187 -23.234375 2.87109375 C-21.49226558 2.5650475 -19.74641336 2.28044594 -18 2 C-18.33 1.67 -18.66 1.34 -19 1 C-21.86688248 1.09096556 -24.70300515 1.23767988 -27.5625 1.4375 C-28.36880859 1.48970703 -29.17511719 1.54191406 -30.00585938 1.59570312 C-32.00421738 1.72577376 -34.00215386 1.86229056 -36 2 C-32.07983686 -0.61344209 -28.53522502 -0.97809142 -23.9375 -1.6875 C-23.08148193 -1.82051514 -22.22546387 -1.95353027 -21.34350586 -2.09057617 C-13.75353596 -3.18433359 -6.91375859 -3.75848621 0 0 Z " fill="#166EA9" transform="translate(133,376)"/>
<path d="M0 0 C-3.33736077 1.11245359 -3.77315535 0.81649795 -7 0 C-9.35268457 -0.09333871 -11.70796984 -0.12995169 -14.0625 -0.125 C-15.29097656 -0.12757813 -16.51945312 -0.13015625 -17.78515625 -0.1328125 C-21.01785208 -0.14782675 -21.01785208 -0.14782675 -24 1 C-24 1.66 -24 2.32 -24 3 C-26.24886238 3.50509208 -28.49913869 4.00389179 -30.75 4.5 C-32.62945312 4.91765625 -32.62945312 4.91765625 -34.546875 5.34375 C-38 6 -38 6 -42 6 C-40.52478107 2.11078647 -38.74059157 0.7509152 -35 -1 C-23.78001748 -4.49474865 -10.92813853 -4.41328671 0 0 Z " fill="#1B6EAB" transform="translate(366,244)"/>
<path d="M0 0 C1.32 0.33 2.64 0.66 4 1 C-7.26288722 7.52061892 -19.66088701 11.08153835 -32 15 C-32.66 14.34 -33.32 13.68 -34 13 C-28.17674153 7.77914758 -20.96589661 4.44197244 -14 1 C-14 1.66 -14 2.32 -14 3 C-14.66 3.66 -15.32 4.32 -16 5 C-13.69 5.33 -11.38 5.66 -9 6 C-9 5.34 -9 4.68 -9 4 C-8.01 4 -7.02 4 -6 4 C-6 3.34 -6 2.68 -6 2 C-4.02 2 -2.04 2 0 2 C0 1.34 0 0.68 0 0 Z " fill="#146FAD" transform="translate(348,313)"/>
<path d="M0 0 C-0.99 0.495 -0.99 0.495 -2 1 C-2 1.66 -2 2.32 -2 3 C-3.98 3 -5.96 3 -8 3 C-8 3.66 -8 4.32 -8 5 C-8.66 5 -9.32 5 -10 5 C-10 6.32 -10 7.64 -10 9 C-11.65 9 -13.3 9 -15 9 C-15 9.66 -15 10.32 -15 11 C-16.1446875 11.2165625 -16.1446875 11.2165625 -17.3125 11.4375 C-20.08172908 11.9632594 -20.08172908 11.9632594 -23 13 C-23 12.34 -23 11.68 -23 11 C-23.66 10.67 -24.32 10.34 -25 10 C-24.67 9.34 -24.34 8.68 -24 8 C-24.66 8 -25.32 8 -26 8 C-26 7.34 -26 6.68 -26 6 C-24.02 6 -22.04 6 -20 6 C-20.33 6.99 -20.66 7.98 -21 9 C-20.2575 8.236875 -19.515 7.47375 -18.75 6.6875 C-12.99974844 1.06793598 -8.24709485 -1.96359401 0 0 Z " fill="#0272BD" transform="translate(377,412)"/>
<path d="M0 0 C1.29479335 2.57616916 2.57034203 5.16131211 3.83984375 7.75 C4.5389531 9.16672066 5.23817504 10.58338576 5.9375 12 C6.28490234 12.7115625 6.63230469 13.423125 6.99023438 14.15625 C8.74140961 17.69157929 10.46262775 20.94560833 13 24 C12.67 24.66 12.34 25.32 12 26 C11.34 24.68 10.68 23.36 10 22 C9.34 22 8.68 22 8 22 C8 21.34 8 20.68 8 20 C6.68 20.33 5.36 20.66 4 21 C3 19 3 19 3.6875 16.875 C4.10025463 13.07765744 2.72790692 11.26754965 0.92578125 8.00390625 C-0.33307873 5.27903211 -0.29517783 2.95177835 0 0 Z M-4 19 C-3.401875 19.33 -2.80375 19.66 -2.1875 20 C0.05386471 21.20787988 0.05386471 21.20787988 3 21 C2.01 22.485 2.01 22.485 1 24 C2.299375 24.12375 3.59875 24.2475 4.9375 24.375 C7.15234375 24.5859375 7.15234375 24.5859375 9 25 C9.33 25.66 9.66 26.32 10 27 C8.68 27 7.36 27 6 27 C6 28.65 6 30.3 6 32 C1.43951988 28.38748484 -2.01665146 25.01202555 -5 20 C-4.67 19.67 -4.34 19.34 -4 19 Z " fill="#D32F32" transform="translate(191,187)"/>
<path d="M0 0 C0 0.66 0 1.32 0 2 C-2.24416299 3.34409762 -4.49442796 4.67529896 -6.75 6 C-7.38421875 6.3815625 -8.0184375 6.763125 -8.671875 7.15625 C-12.13971476 9.17915652 -13.89348254 10 -18 10 C-18 9.34 -18 8.68 -18 8 C-18.81984375 8.30035156 -19.6396875 8.60070312 -20.484375 8.91015625 C-22.10085938 9.48056641 -22.10085938 9.48056641 -23.75 10.0625 C-24.81734375 10.44535156 -25.8846875 10.82820313 -26.984375 11.22265625 C-29.92280042 11.98010011 -31.22348948 12.07151741 -34 11 C-26.7814997 7.74375037 -19.48011374 5.07963726 -11.9375 2.6875 C-11.10436279 2.42114746 -10.27122559 2.15479492 -9.4128418 1.88037109 C-8.62562744 1.63496582 -7.83841309 1.38956055 -7.02734375 1.13671875 C-6.32343506 0.91717529 -5.61952637 0.69763184 -4.89428711 0.47143555 C-3 0 -3 0 0 0 Z " fill="#D22E2F" transform="translate(322,94)"/>
<path d="M0 0 C-1.10787266 2.3009663 -2.25429466 4.37673284 -3.6875 6.5 C-5.24380467 8.87798959 -5.24380467 8.87798959 -4.6875 11.3125 C-4.3471875 12.1478125 -4.3471875 12.1478125 -4 13 C-4.99 12.67 -5.98 12.34 -7 12 C-7 10.02 -7 8.04 -7 6 C-9.64 6.66 -12.28 7.32 -15 8 C-15 8.66 -15 9.32 -15 10 C-16.52931151 11.23646463 -18.05876415 12.47275668 -19.58984375 13.70703125 C-21.14246512 14.97125818 -21.14246512 14.97125818 -22 17.0625 C-22 19.49953105 -21.25238749 20.93724414 -20 23 C-20.66 23 -21.32 23 -22 23 C-24.34168764 19.48746854 -24.49623677 18.13530644 -24 14 C-20.90515024 9.03866869 -16.99706896 7.13235766 -11.875 4.75 C-11.14667969 4.399375 -10.41835937 4.04875 -9.66796875 3.6875 C-7.78336711 2.78177648 -5.8921162 1.88991839 -4 1 C-2 0 -2 0 0 0 Z " fill="#216AA5" transform="translate(156,294)"/>
<path d="M0 0 C0.33 0.99 0.66 1.98 1 3 C2.32 3 3.64 3 5 3 C4.67 4.65 4.34 6.3 4 8 C6.97 8.33 9.94 8.66 13 9 C13 9.66 13 10.32 13 11 C13.598125 11.144375 14.19625 11.28875 14.8125 11.4375 C16.56150404 11.8872439 18.28677023 12.42892341 20 13 C22.39254576 13.22560676 24.78928123 13.40848595 27.1875 13.5625 C29.09595703 13.68818359 29.09595703 13.68818359 31.04296875 13.81640625 C32.50669922 13.90728516 32.50669922 13.90728516 34 14 C34 14.33 34 14.66 34 15 C21.38171862 15.45977543 11.19518025 14.31001069 0 8 C-0.66 7.34 -1.32 6.68 -2 6 C-1.44444444 1.44444444 -1.44444444 1.44444444 0 0 Z " fill="#146FAD" transform="translate(99,265)"/>
<path d="M0 0 C-0.33 0.7425 -0.66 1.485 -1 2.25 C-2.22782871 5.13883312 -2.22782871 5.13883312 -2 9 C-2.66 9 -3.32 9 -4 9 C-3.67 9.99 -3.34 10.98 -3 12 C-3.4375 14.6875 -3.4375 14.6875 -4 17 C-2.35 16.67 -0.7 16.34 1 16 C0.67 17.32 0.34 18.64 0 20 C-4.40595131 18.6537371 -6.58291088 16.93896005 -9 13 C-9.59521377 9.89166141 -9.65512336 8.03949464 -7.94140625 5.3203125 C-3.6520634 0 -3.6520634 0 0 0 Z " fill="#106EAE" transform="translate(154,347)"/>
<path d="M0 0 C-1.70075226 3.40150451 -5.56042051 4.40900185 -8.875 6 C-10.33160009 6.70654064 -11.78736221 7.41481206 -13.2421875 8.125 C-13.8904248 8.43695313 -14.53866211 8.74890625 -15.20654297 9.0703125 C-17.25336729 10.08979845 -17.25336729 10.08979845 -20 12 C-20.99 11.67 -21.98 11.34 -23 11 C-21.68 10.67 -20.36 10.34 -19 10 C-18.67 8.68 -18.34 7.36 -18 6 C-16.35 6 -14.7 6 -13 6 C-13 5.34 -13 4.68 -13 4 C-16.96 4 -20.92 4 -25 4 C-25 3.67 -25 3.34 -25 3 C-21.95919579 2.49420286 -18.91753354 1.99519241 -15.875 1.5 C-14.59109375 1.28537109 -14.59109375 1.28537109 -13.28125 1.06640625 C-8.80328495 0.34304266 -4.55436565 -0.17918816 0 0 Z " fill="#196FAB" transform="translate(317,261)"/>
<path d="M0 0 C0.33 1.32 0.66 2.64 1 4 C-2.33333333 4.66666667 -5.66666667 5.33333333 -9 6 C-9.33 7.65 -9.66 9.3 -10 11 C-10.99 11 -11.98 11 -13 11 C-12.67 11.66 -12.34 12.32 -12 13 C-12.33 13.66 -12.66 14.32 -13 15 C-16 15 -16 15 -17.6875 13.625 C-19 12 -19 12 -19 10 C-19.66 9.67 -20.32 9.34 -21 9 C-17.4965284 7.99900811 -14.41079907 7.29460047 -11 9 C-11.33 8.01 -11.66 7.02 -12 6 C-11.34 6 -10.68 6 -10 6 C-10 4.35 -10 2.7 -10 1 C-2.25 0 -2.25 0 0 0 Z " fill="#E92B2D" transform="translate(297,104)"/>
<path d="M0 0 C5.97646444 5.82322176 5.97646444 5.82322176 6.0625 10.125 C6.041875 11.07375 6.02125 12.0225 6 13 C5.67 13 5.34 13 5 13 C4.67 17.62 4.34 22.24 4 27 C3.34 27 2.68 27 2 27 C1.66078548 23.81309767 1.32970583 20.62539896 1 17.4375 C0.90460938 16.54224609 0.80921875 15.64699219 0.7109375 14.72460938 C0.20432035 9.78509212 -0.10897382 4.96511986 0 0 Z " fill="#D52C2D" transform="translate(267,5)"/>
<path d="M0 0 C5.75 -0.125 5.75 -0.125 8 1 C8 1.99 8 2.98 8 4 C6.12577848 4.48220263 4.25058246 4.96061833 2.375 5.4375 C1.33085937 5.70433594 0.28671875 5.97117187 -0.7890625 6.24609375 C-3.84891124 6.96452539 -6.8948051 7.51976716 -10 8 C-9.67 6.02 -9.34 4.04 -9 2 C-6.03 2 -3.06 2 0 2 C0 1.34 0 0.68 0 0 Z " fill="#0372BB" transform="translate(339,397)"/>
<path d="M0 0 C1.32 0.66 2.64 1.32 4 2 C4 4.64 4 7.28 4 10 C3.34 10 2.68 10 2 10 C2 10.66 2 11.32 2 12 C-1.41831915 14.5393228 -3.75776898 15.3636198 -8 15 C-7.67 14.01 -7.34 13.02 -7 12 C-6.01 12 -5.02 12 -4 12 C-3.71125 11.13375 -3.4225 10.2675 -3.125 9.375 C-2.08333333 6.25 -1.04166667 3.125 0 0 Z " fill="#0971B5" transform="translate(359,381)"/>
<path d="M0 0 C3 1 3 1 4 3 C4.66 3.2475 5.32 3.495 6 3.75 C8 5 8 5 8.64453125 7.6171875 C9.56777822 16.40325208 8.58304434 25.56205515 6 34 C5.34 34 4.68 34 4 34 C3.67 35.32 3.34 36.64 3 38 C2.34 38 1.68 38 1 38 C1.268125 37.34 1.53625 36.68 1.8125 36 C2.204375 35.01 2.59625 34.02 3 33 C3.53625 31.845 4.0725 30.69 4.625 29.5 C7.02379933 22.94657915 7.30700137 15.58371344 4.91015625 9.01171875 C3.70399635 6.59590284 2.41987995 4.29508464 1 2 C0.67 1.34 0.34 0.68 0 0 Z " fill="#2C709B" transform="translate(358,254)"/>
<path d="M0 0 C0.33 0 0.66 0 1 0 C1.33 2.31 1.66 4.62 2 7 C1.01 7.495 1.01 7.495 0 8 C-0.33 8.99 -0.66 9.98 -1 11 C-0.01 11.33 0.98 11.66 2 12 C0.42210402 13.15330947 -1.1625482 14.29737927 -2.75 15.4375 C-3.63171875 16.07558594 -4.5134375 16.71367187 -5.421875 17.37109375 C-7.72699125 18.8275081 -9.34349572 19.55931821 -12 20 C-11.45472656 19.34257812 -11.45472656 19.34257812 -10.8984375 18.671875 C-6.3111455 12.88482971 -3.13334226 6.66668566 0 0 Z " fill="#D3272B" transform="translate(250,240)"/>
<path d="M0 0 C-0.66 1.32 -1.32 2.64 -2 4 C-3.65 4 -5.3 4 -7 4 C-7.33 4.99 -7.66 5.98 -8 7 C-8.99 7.495 -8.99 7.495 -10 8 C-10.12375 8.639375 -10.2475 9.27875 -10.375 9.9375 C-11 12 -11 12 -13.0625 13.25 C-13.701875 13.4975 -14.34125 13.745 -15 14 C-14.7215625 14.928125 -14.7215625 14.928125 -14.4375 15.875 C-14 18 -14 18 -15 20 C-17 17 -17 17 -17.125 13.75 C-15.2528617 7.50953899 -10.38462992 4.64274506 -5.1875 1.0625 C-3 0 -3 0 0 0 Z " fill="#176FAA" transform="translate(79,385)"/>
<path d="M0 0 C0.66 0.99 1.32 1.98 2 3 C0.96359375 3.20496094 -0.0728125 3.40992188 -1.140625 3.62109375 C-2.51042689 3.89317769 -3.88021799 4.16531596 -5.25 4.4375 C-5.93191406 4.57220703 -6.61382812 4.70691406 -7.31640625 4.84570312 C-10.56469458 5.49220711 -13.79815978 6.15002695 -17 7 C-17 6.01 -17 5.02 -17 4 C-15.68 3.67 -14.36 3.34 -13 3 C-13 2.34 -13 1.68 -13 1 C-3.01181102 -0.35433071 -3.01181102 -0.35433071 0 0 Z " fill="#046FB7" transform="translate(114,376)"/>
<path d="M0 0 C-1.32 0.33 -2.64 0.66 -4 1 C-4 1.66 -4 2.32 -4 3 C-6.64 3.99 -9.28 4.98 -12 6 C-12.33 5.01 -12.66 4.02 -13 3 C-13.99 3.33 -14.98 3.66 -16 4 C-17.33525717 4.07973476 -18.67412083 4.10771338 -20.01171875 4.09765625 C-21.14770508 4.09282227 -21.14770508 4.09282227 -22.30664062 4.08789062 C-23.09232422 4.07951172 -23.87800781 4.07113281 -24.6875 4.0625 C-25.48478516 4.05798828 -26.28207031 4.05347656 -27.10351562 4.04882812 C-29.06904257 4.0370585 -31.03453085 4.01912348 -33 4 C-33 3.67 -33 3.34 -33 3 C-28.81327853 2.49333528 -24.62551367 1.99586082 -20.4375 1.5 C-19.25607422 1.35691406 -18.07464844 1.21382813 -16.85742188 1.06640625 C-11.20429736 0.40133278 -5.69356379 -0.20065423 0 0 Z " fill="#1971AD" transform="translate(292,265)"/>
<path d="M0 0 C0.33 0.66 0.66 1.32 1 2 C1.99 2.33 2.98 2.66 4 3 C1.32641642 6.45993169 -1.82885233 7.13700393 -6 8 C-8.9375 7.625 -8.9375 7.625 -11 7 C-11.33 6.01 -11.66 5.02 -12 4 C-8.80684919 2.10776248 -6.65336936 2 -3 2 C-2.01 1.34 -1.02 0.68 0 0 Z " fill="#0274BF" transform="translate(315,403)"/>
<path d="M0 0 C1.65 0 3.3 0 5 0 C0.59432694 3.59196705 -4.16224904 4.99006312 -9.5 6.75 C-10.45003906 7.07871094 -11.40007812 7.40742188 -12.37890625 7.74609375 C-13.29542969 8.05160156 -14.21195312 8.35710937 -15.15625 8.671875 C-15.98962891 8.9512793 -16.82300781 9.23068359 -17.68164062 9.51855469 C-20.18082599 10.03755148 -21.61039375 9.82082562 -24 9 C-21 7 -21 7 -17.4375 6.5 C-13.9428808 6.34152243 -13.9428808 6.34152243 -12 4 C-10.01178687 3.60235737 -8.01055661 3.26224651 -6 3 C-6 2.67 -6 2.34 -6 2 C-4.02 2 -2.04 2 0 2 C0 1.34 0 0.68 0 0 Z " fill="#186CA6" transform="translate(362,421)"/>
<path d="M0 0 C1.65 0 3.3 0 5 0 C5 1.98 5 3.96 5 6 C4.34 6 3.68 6 3 6 C2.67 5.34 2.34 4.68 2 4 C0.68 4.33 -0.64 4.66 -2 5 C-2.10957031 5.61488281 -2.21914063 6.22976562 -2.33203125 6.86328125 C-2.49058594 7.67152344 -2.64914062 8.47976562 -2.8125 9.3125 C-2.96332031 10.11300781 -3.11414063 10.91351563 -3.26953125 11.73828125 C-4.07572236 14.23445587 -5.02052002 15.32422106 -7 17 C-8.27351308 14.45297384 -7.80191925 13.5717055 -7.0625 10.875 C-6.86785156 10.15054688 -6.67320312 9.42609375 -6.47265625 8.6796875 C-6.31667969 8.12539063 -6.16070312 7.57109375 -6 7 C-5.34 7 -4.68 7 -4 7 C-4 5.02 -4 3.04 -4 1 C-3.67 1.66 -3.34 2.32 -3 3 C-2.34 3 -1.68 3 -1 3 C-0.67 2.01 -0.34 1.02 0 0 Z " fill="#E72627" transform="translate(273,35)"/>
<path d="M0 0 C6.6 0.66 13.2 1.32 20 2 C20 2.33 20 2.66 20 3 C17.36 3.33 14.72 3.66 12 4 C13.98 4.66 15.96 5.32 18 6 C14.1540146 7.46779153 11.66055596 6.47366244 7.875 5.125 C6.82054688 4.75632812 5.76609375 4.38765625 4.6796875 4.0078125 C2 3 2 3 0 2 C0 1.34 0 0.68 0 0 Z " fill="#2170A4" transform="translate(121,428)"/>
<path d="M0 0 C4.29 0.33 8.58 0.66 13 1 C13 1.33 13 1.66 13 2 C9.87696198 2.51277829 6.75133678 3.00776825 3.625 3.5 C2.75488281 3.64308594 1.88476562 3.78617187 0.98828125 3.93359375 C-5.05564276 4.87375971 -10.88700101 5.17771303 -17 5 C-17.33 4.34 -17.66 3.68 -18 3 C-12.39 3 -6.78 3 -1 3 C-0.67 2.01 -0.34 1.02 0 0 Z " fill="#186BA9" transform="translate(305,434)"/>
<path d="M0 0 C0.66 0 1.32 0 2 0 C1.88556397 2.0839403 1.75804453 4.16716493 1.625 6.25 C1.55539062 7.41015625 1.48578125 8.5703125 1.4140625 9.765625 C1.03751692 12.70694334 0.5225877 14.49949011 -1 17 C-1 14.36 -1 11.72 -1 9 C-2.65 8.67 -4.3 8.34 -6 8 C-5.67 6.02 -5.34 4.04 -5 2 C-4.01 2.33 -3.02 2.66 -2 3 C-2 3.66 -2 4.32 -2 5 C-1.34 5 -0.68 5 0 5 C0 3.35 0 1.7 0 0 Z " fill="#D83637" transform="translate(278,36)"/>
<path d="M0 0 C0.33 0.66 0.66 1.32 1 2 C-1.49935785 4.71988942 -3.49006317 6.76720275 -6.875 8.3125 C-10.70511757 10.38076349 -12.7914924 12.98936549 -15.484375 16.35546875 C-15.98453125 16.89816406 -16.4846875 17.44085938 -17 18 C-17.66 18 -18.32 18 -19 18 C-19 16 -19 16 -17 13.8125 C-11.67259378 8.71147081 -6.26482809 3.91551755 0 0 Z " fill="#CA2C35" transform="translate(255,123)"/>
<path d="M0 0 C1.98 0.66 3.96 1.32 6 2 C4.31955675 5.36088651 0.54837893 5.93782936 -2.8125 7.1875 C-3.53759766 7.47302734 -4.26269531 7.75855469 -5.00976562 8.05273438 C-5.71423828 8.31763672 -6.41871094 8.58253906 -7.14453125 8.85546875 C-7.78753174 9.09934326 -8.43053223 9.34321777 -9.09301758 9.59448242 C-11.36368384 10.07733694 -12.81416521 9.7102067 -15 9 C-14.01 8.67 -13.02 8.34 -12 8 C-11.67 7.34 -11.34 6.68 -11 6 C-6.90805199 4.58355646 -3.33291912 3.73739884 1 4 C0.67 2.68 0.34 1.36 0 0 Z " fill="#1A6CA6" transform="translate(287,361)"/>
<path d="M0 0 C0.66 0.33 1.32 0.66 2 1 C1.67 2.32 1.34 3.64 1 5 C0.01 5 -0.98 5 -2 5 C-2 5.66 -2 6.32 -2 7 C-4.31 7 -6.62 7 -9 7 C-9 6.01 -9 5.02 -9 4 C-8.34 4 -7.68 4 -7 4 C-6.67 3.01 -6.34 2.02 -6 1 C-6 1.66 -6 2.32 -6 3 C-5.05125 2.484375 -4.1025 1.96875 -3.125 1.4375 C-2.09375 0.963125 -1.0625 0.48875 0 0 Z " fill="#056CBA" transform="translate(341,312)"/>
<path d="M0 0 C5.02833307 1.43666659 7.16658908 3.74988363 10 8 C10.08446937 11.54771363 9.29692821 12.66708049 6.9375 15.3125 C5.9784375 16.1478125 5.9784375 16.1478125 5 17 C5 16.01 5 15.02 5 14 C5.66 14 6.32 14 7 14 C6.67 11.36 6.34 8.72 6 6 C5.071875 5.9071875 5.071875 5.9071875 4.125 5.8125 C2 5 2 5 0.75 2.4375 C0.5025 1.633125 0.255 0.82875 0 0 Z " fill="#246FA2" transform="translate(356,377)"/>
<path d="M0 0 C1.32 0.33 2.64 0.66 4 1 C1.71287089 2.83925787 -0.57928535 4.67151494 -2.875 6.5 C-3.85146484 7.28697266 -3.85146484 7.28697266 -4.84765625 8.08984375 C-5.47285156 8.58613281 -6.09804688 9.08242188 -6.7421875 9.59375 C-7.3182373 10.05458984 -7.89428711 10.51542969 -8.48779297 10.99023438 C-10 12 -10 12 -12 12 C-12.33 11.01 -12.66 10.02 -13 9 C-11.2984375 8.5978125 -11.2984375 8.5978125 -9.5625 8.1875 C-8.386875 7.795625 -7.21125 7.40375 -6 7 C-5.67 6.01 -5.34 5.02 -5 4 C-3.68352881 3.30062468 -2.34977849 2.63270867 -1 2 C-0.67 1.34 -0.34 0.68 0 0 Z " fill="#136CAA" transform="translate(369,298)"/>
<path d="M0 0 C0.33 0.66 0.66 1.32 1 2 C-0.22541585 4.5011507 -1.49794127 6.8968903 -2.875 9.3125 C-6.33474901 15.31506839 -6.33474901 15.31506839 -8 22 C-8.66 22 -9.32 22 -10 22 C-9.62702867 13.60814503 -5.08257778 6.49778657 0 0 Z " fill="#C63133" transform="translate(235,141)"/>
<path d="M0 0 C4.62 0 9.24 0 14 0 C14 0.66 14 1.32 14 2 C16.64 2.33 19.28 2.66 22 3 C22 3.33 22 3.66 22 4 C14.37404682 4.45755719 7.3970146 2.74536299 0 1 C0 0.67 0 0.34 0 0 Z " fill="#1B6BA5" transform="translate(154,325)"/>
<path d="M0 0 C0.75216797 0.29003906 0.75216797 0.29003906 1.51953125 0.5859375 C10.43013615 3.65227854 19.67314392 4.18605465 29 5 C29 5.33 29 5.66 29 6 C5.76561451 6.33727334 5.76561451 6.33727334 0 3 C0 2.01 0 1.02 0 0 Z " fill="#236EA1" transform="translate(152,307)"/>
<path d="M0 0 C5.0597592 4.36979204 5.4192616 10.01514796 5.9140625 16.328125 C6.01085772 19.33757627 5.71174086 22.07395423 5 25 C4.67 25 4.34 25 4 25 C3.96261719 23.91460937 3.92523438 22.82921875 3.88671875 21.7109375 C3.82102125 20.26559261 3.75457524 18.82028161 3.6875 17.375 C3.66494141 16.66214844 3.64238281 15.94929688 3.61914062 15.21484375 C3.37767068 10.42934857 2.33438967 7.26824063 0 3 C0 2.01 0 1.02 0 0 Z " fill="#216AA1" transform="translate(379,256)"/>
<path d="M0 0 C0.66 0 1.32 0 2 0 C1.96519531 0.88300781 1.93039063 1.76601562 1.89453125 2.67578125 C1.71437058 10.66290428 2.40647489 17.43555175 5 25 C4.01 24.67 3.02 24.34 2 24 C-0.40156406 18.95830591 -0.23801002 14.07556 -0.125 8.625 C-0.11597656 7.79355469 -0.10695312 6.96210938 -0.09765625 6.10546875 C-0.0742622 4.07018663 -0.03839725 2.03505436 0 0 Z " fill="#CF2F31" transform="translate(249,153)"/>
<path d="M0 0 C0.66 0.33 1.32 0.66 2 1 C1.29875 1.495 0.5975 1.99 -0.125 2.5 C-3.70236753 5.61075437 -6.27632648 9.14380244 -9 13 C-10.32 12.67 -11.64 12.34 -13 12 C-9.22660027 7.04741286 -5.09210286 3.56320845 0 0 Z " fill="#CC3235" transform="translate(214,103)"/>
<path d="M0 0 C0.33 0.66 0.66 1.32 1 2 C0.030625 2.7425 -0.93875 3.485 -1.9375 4.25 C-3.84366805 5.84973914 -4.9049356 6.80392968 -6 9.0625 C-6 11.49953105 -5.25238749 12.93724414 -4 15 C-4.66 15 -5.32 15 -6 15 C-8.34168764 11.48746854 -8.49623677 10.13530644 -8 6 C-6.17680876 3.06987122 -5.02957119 1.3717896 -1.75 0.1875 C-1.1725 0.125625 -0.595 0.06375 0 0 Z " fill="#136CAA" transform="translate(140,302)"/>
<path d="M0 0 C0 3 0 3 -1.828125 4.8671875 C-2.62734375 5.52976562 -3.4265625 6.19234375 -4.25 6.875 C-7.56528371 9.70473822 -10.44150871 12.44035994 -13 16 C-13.99 15.67 -14.98 15.34 -16 15 C-12.49441279 11.44314278 -8.89446761 8.03716953 -5.1875 4.6875 C-4.21167969 3.80449219 -3.23585937 2.92148438 -2.23046875 2.01171875 C-1.49441406 1.34785156 -0.75835937 0.68398437 0 0 Z " fill="#CE2D33" transform="translate(237,84)"/>
<path d="M0 0 C0.66 0 1.32 0 2 0 C1.52389341 4.99911924 -0.03162219 7.97832683 -3 12 C-3.77772405 9.66682784 -4.42415568 7.38564077 -5 5 C-4.34 5 -3.68 5 -3 5 C-2.5359375 4.0409375 -2.5359375 4.0409375 -2.0625 3.0625 C-1 1 -1 1 0 0 Z " fill="#226CA9" transform="translate(383,400)"/>
<path d="M0 0 C0.9075 0.66 1.815 1.32 2.75 2 C0.75 3 0.75 3 -2.3125 2.125 C-5.25 1 -5.25 1 -6.25 0 C-11.56610307 -0.3954103 -11.56610307 -0.3954103 -16.5 1.125 C-17.0775 1.41375 -17.655 1.7025 -18.25 2 C-20.5 1.125 -20.5 1.125 -22.25 0 C-15.46253889 -3.01664938 -6.59771469 -3.78931882 0 0 Z " fill="#056DB5" transform="translate(277.25,355)"/>
<path d="M0 0 C0.75410156 0.00451172 1.50820312 0.00902344 2.28515625 0.01367188 C4.14847127 0.02546501 6.01174555 0.04340058 7.875 0.0625 C7.875 0.7225 7.875 1.3825 7.875 2.0625 C-0.54 2.5575 -0.54 2.5575 -9.125 3.0625 C-9.455 2.4025 -9.785 1.7425 -10.125 1.0625 C-6.93675432 -0.53162284 -3.49603338 -0.03924735 0 0 Z " fill="#1E6FA9" transform="translate(226.125,270.9375)"/>
<path d="M0 0 C0 3.98189489 -1.47178333 4.98018565 -4 8 C-4.680625 9.0725 -5.36125 10.145 -6.0625 11.25 C-8 14 -8 14 -11 15 C-10.582687 10.07215495 -8.45014073 8.0222855 -4.9375 4.6875 C-4.01839844 3.80449219 -3.09929687 2.92148438 -2.15234375 2.01171875 C-1.44207031 1.34785156 -0.73179687 0.68398437 0 0 Z " fill="#CE2F34" transform="translate(188,125)"/>
<path d="M0 0 C0 0.33 0 0.66 0 1 C-1.24716797 1.30744141 -1.24716797 1.30744141 -2.51953125 1.62109375 C-3.60621094 1.89050781 -4.69289062 2.15992188 -5.8125 2.4375 C-7.43091797 2.83775391 -7.43091797 2.83775391 -9.08203125 3.24609375 C-11.0740843 3.76077412 -13.04811524 4.34937175 -15 5 C-16.55853267 5.21803307 -18.12182651 5.40366356 -19.6875 5.5625 C-20.49574219 5.64628906 -21.30398437 5.73007813 -22.13671875 5.81640625 C-23.05904297 5.90728516 -23.05904297 5.90728516 -24 6 C-20.745987 3.830658 -17.99869282 2.9609947 -14.25 1.875 C-13.05890625 1.52179688 -11.8678125 1.16859375 -10.640625 0.8046875 C-6.9720114 -0.00618632 -3.74362434 -0.14398555 0 0 Z " fill="#2072AB" transform="translate(148,248)"/>
<path d="M0 0 C-0.33 0.66 -0.66 1.32 -1 2 C-7.6 2 -14.2 2 -21 2 C-21 1.67 -21 1.34 -21 1 C-18.25091555 0.63685675 -15.50116549 0.28419159 -12.75 -0.0625 C-11.97269531 -0.16626953 -11.19539063 -0.27003906 -10.39453125 -0.37695312 C-9.64042969 -0.47041016 -8.88632812 -0.56386719 -8.109375 -0.66015625 C-7.41811523 -0.74918213 -6.72685547 -0.83820801 -6.01464844 -0.92993164 C-3.82569152 -1.00606235 -2.08994187 -0.6249336 0 0 Z " fill="#1E6FA5" transform="translate(300,429)"/>
<path d="M0 0 C1.65 0.33 3.3 0.66 5 1 C5 1.99 5 2.98 5 4 C1.62637846 6.60250805 -0.76907828 7.36265043 -5 7 C-4.67 6.01 -4.34 5.02 -4 4 C-3.01 4 -2.02 4 -1 4 C-0.67 2.68 -0.34 1.36 0 0 Z " fill="#0273BE" transform="translate(356,389)"/>
<path d="M0 0 C3 1 3 1 4 3 C4.66 3.2475 5.32 3.495 6 3.75 C8 5 8 5 8.75 8.125 C8.87375 9.548125 8.87375 9.548125 9 11 C8.01 11.33 7.02 11.66 6 12 C4 8 2 4 0 0 Z " fill="#126EAD" transform="translate(358,254)"/>
<path d="M0 0 C-2.3937297 0.98459071 -4.7897507 1.96278703 -7.1875 2.9375 C-7.86103516 3.21529297 -8.53457031 3.49308594 -9.22851562 3.77929688 C-12.80221811 5.22621056 -16.16443184 6.41163129 -20 7 C-20 6.34 -20 5.68 -20 5 C-19.26394531 4.73445313 -18.52789062 4.46890625 -17.76953125 4.1953125 C-16.79371094 3.84210938 -15.81789062 3.48890625 -14.8125 3.125 C-13.84957031 2.77695313 -12.88664063 2.42890625 -11.89453125 2.0703125 C-9.01852096 1.04783584 -9.01852096 1.04783584 -6.38671875 -0.1953125 C-3.74968963 -1.0843927 -2.57023727 -0.95193973 0 0 Z " fill="#1F6EA1" transform="translate(154,252)"/>
<path d="M0 0 C0.66 0 1.32 0 2 0 C0.11408904 6.03491509 -3.75601839 11.50401226 -9 15 C-9 14.01 -9 13.02 -9 12 C-8.34 12 -7.68 12 -7 12 C-7 11.01 -7 10.02 -7 9 C-5.70896357 7.6256709 -4.3743291 6.29103643 -3 5 C-2.67 4.34 -2.34 3.68 -2 3 C-1.34 3 -0.68 3 0 3 C0 2.01 0 1.02 0 0 Z " fill="#CA3135" transform="translate(269,229)"/>
<path d="M0 0 C1.65 0 3.3 0 5 0 C3.46270661 1.53729339 1.93805263 3.05506433 0.3125 4.5 C-1.3292523 6.04409629 -1.3292523 6.04409629 -1 9 C0.94009522 10.70532323 0.94009522 10.70532323 3 12 C0.03 11.505 0.03 11.505 -3 11 C-4.25541557 7.23375329 -3.37061958 5.62811066 -2 2 C-1.34 2 -0.68 2 0 2 C0 1.34 0 0.68 0 0 Z " fill="#146BA3" transform="translate(93,385)"/>
<path d="M0 0 C-0.309375 0.556875 -0.61875 1.11375 -0.9375 1.6875 C-2.05761821 4.12540433 -2.56037364 6.36224186 -3 9 C-3.66 9 -4.32 9 -5 9 C-5 7.35 -5 5.7 -5 4 C-5.66 3.67 -6.32 3.34 -7 3 C-7.33 3.99 -7.66 4.98 -8 6 C-9.32 5.34 -10.64 4.68 -12 4 C-10.3767313 3.3291288 -8.75132422 2.66342971 -7.125 2 C-6.22007812 1.62875 -5.31515625 1.2575 -4.3828125 0.875 C-2 0 -2 0 0 0 Z " fill="#2570A5" transform="translate(166,342)"/>
<path d="M0 0 C1.97986082 0.11347619 3.95891598 0.2410935 5.9375 0.375 C7.03964844 0.44460938 8.14179688 0.51421875 9.27734375 0.5859375 C10.62505859 0.79089844 10.62505859 0.79089844 12 1 C12.33 1.66 12.66 2.32 13 3 C8.05 3 3.1 3 -2 3 C-1.34 2.01 -0.68 1.02 0 0 Z " fill="#0F6FAC" transform="translate(247,324)"/>
<path d="M0 0 C0.66 0.33 1.32 0.66 2 1 C0.625 3 0.625 3 -1 5 C-1.66 5 -2.32 5 -3 5 C-3.2475 5.598125 -3.495 6.19625 -3.75 6.8125 C-5.16370012 9.28647521 -6.65055383 10.43370255 -9 12 C-8.37240135 9.07120629 -7.41377341 6.63904371 -6 4 C-4.68 4 -3.36 4 -2 4 C-1.34 2.68 -0.68 1.36 0 0 Z " fill="#CB2E30" transform="translate(250,95)"/>
<path d="M0 0 C2.94721162 2.74395564 5.19168608 5.38337216 7 9 C6.67 9.66 6.34 10.32 6 11 C4.66666667 9.66666667 3.33333333 8.33333333 2 7 C1.401875 6.505 0.80375 6.01 0.1875 5.5 C-0.204375 5.005 -0.59625 4.51 -1 4 C-0.6875 1.8125 -0.6875 1.8125 0 0 Z " fill="#CF2F32" transform="translate(264,193)"/>
<path d="M0 0 C1.32 0 2.64 0 4 0 C4 0.66 4 1.32 4 2 C9.445 3.485 9.445 3.485 15 5 C10.4719721 6.13200698 9.03799216 5.60058415 4.75 4.0625 C3.67234375 3.68222656 2.5946875 3.30195313 1.484375 2.91015625 C0.66453125 2.60980469 -0.1553125 2.30945313 -1 2 C-0.67 1.34 -0.34 0.68 0 0 Z " fill="#1C6EA2" transform="translate(161,369)"/>
<path d="M0 0 C-5.75 5 -5.75 5 -8 5 C-8 5.66 -8 6.32 -8 7 C-8.99 7.33 -9.98 7.66 -11 8 C-11 5 -11 5 -9.5625 3.4375 C-9.046875 2.963125 -8.53125 2.48875 -8 2 C-7.67 1.34 -7.34 0.68 -7 0 C-4.0262656 -1.09036928 -3.11592499 -1.03864166 0 0 Z " fill="#C82B31" transform="translate(241,108)"/>
<path d="M0 0 C-0.33 0.99 -0.66 1.98 -1 3 C-4.14930893 4.04976964 -6.38814456 4.10131595 -9.6875 4.0625 C-10.68136719 4.05347656 -11.67523438 4.04445313 -12.69921875 4.03515625 C-13.83810547 4.01775391 -13.83810547 4.01775391 -15 4 C-10.34714182 0.89809455 -5.58467324 -0.33846504 0 0 Z " fill="#1B71AA" transform="translate(351,418)"/>
<path d="M0 0 C0.66 0.33 1.32 0.66 2 1 C1.67 1.66 1.34 2.32 1 3 C-0.32 3 -1.64 3 -3 3 C-3.33 4.65 -3.66 6.3 -4 8 C-6.475 7.01 -6.475 7.01 -9 6 C-3.30379747 1.25316456 -3.30379747 1.25316456 0 0 Z " fill="#D03135" transform="translate(273,112)"/>
<path d="M0 0 C0 0.99 0 1.98 0 3 C-2.57213134 4.61949011 -3.67669159 5.04408751 -6.75 4.625 C-7.4925 4.41875 -8.235 4.2125 -9 4 C-7.04565548 0.09131097 -4.13449517 0 0 0 Z " fill="#0275C0" transform="translate(105,378)"/>
<path d="M0 0 C1.32 0 2.64 0 4 0 C2.64978174 4.41889613 0.73884332 6.34345343 -3 9 C-2.01 6.03 -1.02 3.06 0 0 Z " fill="#136DA8" transform="translate(376,288)"/>
<path d="M0 0 C0 0.66 0 1.32 0 2 C-3.96 3.98 -3.96 3.98 -8 6 C-8 5.01 -8 4.02 -8 3 C-8.66 2.67 -9.32 2.34 -10 2 C-3.375 0 -3.375 0 0 0 Z " fill="#B4323B" transform="translate(322,94)"/>
<path d="M0 0 C0.99 0.99 1.98 1.98 3 3 C2.67 3.99 2.34 4.98 2 6 C1.01 6 0.02 6 -1 6 C-1.33 6.66 -1.66 7.32 -2 8 C-2.66 8 -3.32 8 -4 8 C-4.33 7.01 -4.66 6.02 -5 5 C-4.360625 4.731875 -3.72125 4.46375 -3.0625 4.1875 C-0.66868314 3.11332248 -0.66868314 3.11332248 0 0 Z " fill="#EF2C2F" transform="translate(274,30)"/>
<path d="M0 0 C2.64 0.33 5.28 0.66 8 1 C8.33 1.99 8.66 2.98 9 4 C6.36 4 3.72 4 1 4 C1.33 3.34 1.66 2.68 2 2 C1.34 1.34 0.68 0.68 0 0 Z " fill="#2C6BA3" transform="translate(124,374)"/>
<path d="M0 0 C-4.62 1.32 -9.24 2.64 -14 4 C-14 3.01 -14 2.02 -14 1 C-9.03787483 -0.65404172 -5.1063779 -1.27659447 0 0 Z " fill="#326F9C" transform="translate(329,324)"/>
<path d="M0 0 C-1.62366466 3.24732932 -4.75387839 3.70155136 -8 5 C-8 4.01 -8 3.02 -8 2 C-8.99 1.67 -9.98 1.34 -11 1 C-7.26562152 0.12132271 -3.83225427 -0.08912219 0 0 Z " fill="#2D7399" transform="translate(317,261)"/>
<path d="M0 0 C0.66 0.33 1.32 0.66 2 1 C1.38125 1.0825 0.7625 1.165 0.125 1.25 C-2.17972859 1.79394438 -2.17972859 1.79394438 -3.0625 4 C-3.371875 4.66 -3.68125 5.32 -4 6 C-4.99 6.33 -5.98 6.66 -7 7 C-7.66 6.34 -8.32 5.68 -9 5 C-7.54735962 4.1361871 -6.0876837 3.28419546 -4.625 2.4375 C-3.40683594 1.72400391 -3.40683594 1.72400391 -2.1640625 0.99609375 C-1.44992188 0.66738281 -0.73578125 0.33867187 0 0 Z " fill="#166FA9" transform="translate(109,259)"/>
<path d="M0 0 C1.98 1.65 3.96 3.3 6 5 C5.01 5.495 5.01 5.495 4 6 C4.33 7.98 4.66 9.96 5 12 C3.41028035 9.61542052 2.13258407 7.3695876 0.875 4.8125 C0.34519531 3.73935547 0.34519531 3.73935547 -0.1953125 2.64453125 C-0.46085938 2.10183594 -0.72640625 1.55914062 -1 1 C-0.67 0.67 -0.34 0.34 0 0 Z " fill="#D42F34" transform="translate(246,215)"/>
<path d="M0 0 C1.32 0 2.64 0 4 0 C4.33 0.66 4.66 1.32 5 2 C4.67 2.99 4.34 3.98 4 5 C5.32 5.66 6.64 6.32 8 7 C7.01 8.485 7.01 8.485 6 10 C4.99723227 8.52270825 3.99785546 7.04311423 3 5.5625 C2.443125 4.73878906 1.88625 3.91507813 1.3125 3.06640625 C0 1 0 1 0 0 Z " fill="#CE3135" transform="translate(175,192)"/>
<path d="M0 0 C3.96 0.33 7.92 0.66 12 1 C12 1.33 12 1.66 12 2 C10.8553125 2.2165625 10.8553125 2.2165625 9.6875 2.4375 C6.91827092 2.9632594 6.91827092 2.9632594 4 4 C1.8125 3.0625 1.8125 3.0625 0 2 C0 1.34 0 0.68 0 0 Z " fill="#366FA7" transform="translate(121,428)"/>
<path d="M0 0 C1.32 1.32 2.64 2.64 4 4 C3.01 4.495 3.01 4.495 2 5 C2 7.64 2 10.28 2 13 C1.67 13 1.34 13 1 13 C0.67 8.71 0.34 4.42 0 0 Z " fill="#BE3937" transform="translate(267,5)"/>
<path d="M0 0 C1.98 0.66 3.96 1.32 6 2 C5 4 5 4 2.625 5.1875 C0 6 0 6 -3 5 C-1.68 4.67 -0.36 4.34 1 4 C0.67 2.68 0.34 1.36 0 0 Z " fill="#2C729D" transform="translate(287,361)"/>
<path d="M0 0 C2.64 0.99 5.28 1.98 8 3 C8 3.66 8 4.32 8 5 C6.02 5.33 4.04 5.66 2 6 C2.33 4.68 2.66 3.36 3 2 C2.01 2 1.02 2 0 2 C0 1.34 0 0.68 0 0 Z " fill="#206FA6" transform="translate(292,313)"/>
<path d="M0 0 C3.3 0 6.6 0 10 0 C6.3750203 1.81248985 4.62740416 2.31888915 0.75 2.625 C-0.14203125 2.69976562 -1.0340625 2.77453125 -1.953125 2.8515625 C-2.62859375 2.90054687 -3.3040625 2.94953125 -4 3 C-2.68 2.67 -1.36 2.34 0 2 C0 1.34 0 0.68 0 0 Z " fill="#1E71AB" transform="translate(283,273)"/>
<path d="M0 0 C0.99 0.33 1.98 0.66 3 1 C3.33 2.65 3.66 4.3 4 6 C4.66 6 5.32 6 6 6 C5.67 7.32 5.34 8.64 5 10 C4.15801693 8.90241493 3.32669329 7.79664683 2.5 6.6875 C2.0359375 6.07261719 1.571875 5.45773438 1.09375 4.82421875 C0 3 0 3 0 0 Z " fill="#C92E31" transform="translate(234,200)"/>
<path d="M0 0 C-4.61012242 2.95047835 -7.36529617 4.5497272 -13 4 C-4.66666667 -1.55555556 -4.66666667 -1.55555556 0 0 Z " fill="#236FA9" transform="translate(124,255)"/>
<path d="M0 0 C0 4.78571429 0 4.78571429 -1 7 C-4.0625 8.25 -4.0625 8.25 -7 9 C-6.02180976 7.68677212 -5.0424189 6.37443848 -4.0625 5.0625 C-3.51722656 4.33160156 -2.97195312 3.60070312 -2.41015625 2.84765625 C-1 1 -1 1 0 0 Z " fill="#BD3A44" transform="translate(245,251)"/>
<path d="M0 0 C0.268125 0.639375 0.53625 1.27875 0.8125 1.9375 C1.88667752 4.33131686 1.88667752 4.33131686 5 5 C4.67 6.98 4.34 8.96 4 11 C0.85041169 7.57653445 0.43820891 4.55737263 0 0 Z " fill="#CE3237" transform="translate(225,181)"/>
<path d="M0 0 C0.66 0.33 1.32 0.66 2 1 C1.67 2.32 1.34 3.64 1 5 C-0.32 5.33 -1.64 5.66 -3 6 C-3 5.34 -3 4.68 -3 4 C-3.66 3.67 -4.32 3.34 -5 3 C-2.625 1.4375 -2.625 1.4375 0 0 Z " fill="#0275C0" transform="translate(341,312)"/>
<path d="M0 0 C3.3 0 6.6 0 10 0 C10 0.66 10 1.32 10 2 C7.69 2.33 5.38 2.66 3 3 C3 2.34 3 1.68 3 1 C2.01 0.67 1.02 0.34 0 0 Z " fill="#1A66AD" transform="translate(159,246)"/>
<path d="M0 0 C1.485 0.99 1.485 0.99 3 2 C3.1875 5.125 3.1875 5.125 3 8 C2.01 8 1.02 8 0 8 C0 5.36 0 2.72 0 0 Z " fill="#E12523" transform="translate(251,222)"/>
<path d="M0 0 C0.33 1.32 0.66 2.64 1 4 C-2.28976808 5.09658936 -3.71303767 4.79953138 -7 4 C-4.61426621 2.10786631 -2.92824652 0.97608217 0 0 Z " fill="#D33032" transform="translate(286,106)"/>
<path d="M0 0 C7.75 -0.125 7.75 -0.125 10 1 C10 1.66 10 2.32 10 3 C3.375 2.25 3.375 2.25 0 0 Z " fill="#046BB0" transform="translate(130,431)"/>
<path d="M0 0 C1.21236328 0.04060547 1.21236328 0.04060547 2.44921875 0.08203125 C3.06410156 0.11683594 3.67898438 0.15164063 4.3125 0.1875 C0.27957255 2.4219598 -3.13717434 2.73246743 -7.6875 3.1875 C-5.26849268 0.20484049 -3.789448 -0.16475861 0 0 Z " fill="#1C6EA3" transform="translate(267.6875,370.8125)"/>
<path d="M0 0 C0.33 0 0.66 0 1 0 C1.33 2.31 1.66 4.62 2 7 C0.35 7.66 -1.3 8.32 -3 9 C-2.01 6.03 -1.02 3.06 0 0 Z " fill="#CF2F33" transform="translate(250,240)"/>
<path d="M0 0 C0.66 0 1.32 0 2 0 C2.33 3.3 2.66 6.6 3 10 C-0.00617269 6.99382731 0.40414684 4.17618402 0 0 Z " fill="#CB2F2F" transform="translate(167,172)"/>
<path d="M0 0 C0.33 0 0.66 0 1 0 C1 1.98 1 3.96 1 6 C-0.98 6.99 -0.98 6.99 -3 8 C-2.45276317 4.62537285 -1.9451 2.91765 0 0 Z " fill="#DC2727" transform="translate(191,156)"/>
<path d="M0 0 C0.99 0.33 1.98 0.66 3 1 C0.525 4.465 0.525 4.465 -2 8 C-3 4 -3 4 -2 1 C-1.34 0.67 -0.68 0.34 0 0 Z " fill="#D12D32" transform="translate(256,141)"/>
<path d="M0 0 C1.32 0.33 2.64 0.66 4 1 C0.535 3.97 0.535 3.97 -3 7 C-3.33 6.34 -3.66 5.68 -4 5 C-3.34 5 -2.68 5 -2 5 C-1.34 3.35 -0.68 1.7 0 0 Z " fill="#C92E34" transform="translate(270,126)"/>
<path d="M0 0 C2.31 0.66 4.62 1.32 7 2 C7 2.66 7 3.32 7 4 C5.68 4.33 4.36 4.66 3 5 C2.01 3.35 1.02 1.7 0 0 Z " fill="#106CA8" transform="translate(280,358)"/>
<path d="M0 0 C0.66 0.33 1.32 0.66 2 1 C0.75 3 0.75 3 -1 5 C-2.32 5 -3.64 5 -5 5 C-4 2 -4 2 -2.0625 0.75 C-1.381875 0.5025 -0.70125 0.255 0 0 Z " fill="#166EA8" transform="translate(323,320)"/>
<path d="M0 0 C0.66 0.33 1.32 0.66 2 1 C1.67 1.99 1.34 2.98 1 4 C-1.31 4.33 -3.62 4.66 -6 5 C-4.06745228 2.9754262 -2.36841312 1.57894208 0 0 Z " fill="#C93539" transform="translate(262,118)"/>
<path d="M0 0 C1.65 0 3.3 0 5 0 C5 0.66 5 1.32 5 2 C6.32 2.66 7.64 3.32 9 4 C3.46153846 3.38461538 3.46153846 3.38461538 1.125 1.4375 C0.75375 0.963125 0.3825 0.48875 0 0 Z " fill="#1A71AE" transform="translate(66,405)"/>
<path d="M0 0 C0.66 0.33 1.32 0.66 2 1 C-0.71182212 3.60334924 -1.89133813 3.99456691 -5.75 4.1875 C-6.8225 4.125625 -7.895 4.06375 -9 4 C-6.06195683 2.47657021 -3.13439441 1.07229283 0 0 Z " fill="#2172AD" transform="translate(348,393)"/>
<path d="M0 0 C3.0831351 1.19899698 6.06279492 2.47700477 9 4 C7 5 7 5 3.9375 4.25 C2.968125 3.8375 1.99875 3.425 1 3 C0.67 2.01 0.34 1.02 0 0 Z " fill="#156AA3" transform="translate(271,353)"/>
<path d="M0 0 C0.33 1.32 0.66 2.64 1 4 C0.34 4 -0.32 4 -1 4 C-1.33 5.32 -1.66 6.64 -2 8 C-2.66 8 -3.32 8 -4 8 C-2.87548273 5.0280615 -1.77706209 2.66559313 0 0 Z " fill="#186DA6" transform="translate(363,284)"/>
<path d="M0 0 C2.64 0.33 5.28 0.66 8 1 C4.5980513 3.09350689 1.94727588 3.17942163 -2 3 C-1.34 2.01 -0.68 1.02 0 0 Z " fill="#1D74AD" transform="translate(271,275)"/>
</svg>
