<?xml version="1.0" encoding="UTF-8"?>
<svg version="1.1" xmlns="http://www.w3.org/2000/svg" width="256" height="256" viewBox="0 0 256 256">
<path d="M0 0 C7.43028705 -0.46751701 14.85902721 -0.82070091 22.30075169 -1.03624344 C25.75947829 -1.13984844 29.20803017 -1.27956221 32.66088867 -1.50878906 C54.80290343 -2.94012752 54.80290343 -2.94012752 61.67446899 1.87350464 C66.25376383 6.46180875 69.46582864 11.69036329 72.51496887 17.37449646 C74.97422986 21.72241774 78.03099143 25.60357266 81.0625 29.5625 C82.22319776 31.13440082 83.38112965 32.70835122 84.53515625 34.28515625 C88.01890206 39.02678489 91.50895025 43.76374747 95 48.5 C98.62955135 53.42530631 102.25861541 58.35097068 105.88671875 63.27734375 C106.52287109 64.14101562 107.15902344 65.0046875 107.81445312 65.89453125 C109.03334382 67.54937555 110.25210088 69.20431828 111.47070312 70.859375 C112.02048828 71.60574219 112.57027344 72.35210937 113.13671875 73.12109375 C113.61842529 73.7752124 114.10013184 74.42933105 114.59643555 75.10327148 C116.05574822 77.07533622 117.52598151 79.0389098 119 81 C117.67626016 83.79275877 116.19609726 86.26493873 114.3828125 88.765625 C113.60562866 89.84058228 113.60562866 89.84058228 112.81274414 90.93725586 C112.25578857 91.70046143 111.69883301 92.46366699 111.125 93.25 C110.54419678 94.04994385 109.96339355 94.8498877 109.36499023 95.67407227 C105.15754717 101.45323833 100.89002807 107.1854077 96.58789062 112.89428711 C90.93876619 120.39300264 85.38268274 127.95969394 79.82177734 135.52392578 C77.94201786 138.0788066 76.05932175 140.63149934 74.17578125 143.18359375 C73.54978027 144.03203857 72.9237793 144.8804834 72.27880859 145.75463867 C71.08807253 147.36833707 69.89701373 148.98179738 68.70556641 150.5949707 C68.16206543 151.33191162 67.61856445 152.06885254 67.05859375 152.828125 C66.58736084 153.4665332 66.11612793 154.10494141 65.63061523 154.76269531 C64.00352829 156.85117683 64.00352829 156.85117683 63.14463806 158.79371643 C61.95197174 161.00122128 60.95350844 162.40923629 59 164 C54.75442016 164.99174695 50.60079071 164.81432765 46.26171875 164.68359375 C45.02581497 164.67368912 43.78991119 164.66378448 42.51655579 164.65357971 C39.24235301 164.62107272 35.97058937 164.55827798 32.69720459 164.48065186 C29.35240146 164.40883311 26.00749178 164.37762783 22.66210938 164.34179688 C16.10712194 164.26465253 9.55376035 164.14754241 3 164 C2.97315321 161.35409986 2.95323643 158.70846904 2.9375 156.0625 C2.92912109 155.30775391 2.92074219 154.55300781 2.91210938 153.77539062 C2.90347559 151.85005687 2.94775667 149.92464419 3 148 C4 147 4 147 5.81034851 146.96963501 C6.60085098 147.01139862 7.39135345 147.05316223 8.20581055 147.09619141 C33.80631798 149.84285357 33.80631798 149.84285357 56.8125 142.26953125 C59.95452412 138.40711288 62.00568571 134.11685436 63.87646484 129.52294922 C65.64984289 125.54074827 68.28084832 122.37453031 71 119 C71.97786348 117.70965889 72.95047658 116.41532311 73.91796875 115.1171875 C74.41216309 114.4581543 74.90635742 113.79912109 75.41552734 113.12011719 C83.08925489 102.85222042 90.73813719 92.56473833 98 82 C93.89481655 75.68997214 89.55036907 69.62013075 85 63.625 C83.66988273 61.86249983 82.34047267 60.09946574 81.01171875 58.3359375 C80.34317871 57.44874023 79.67463867 56.56154297 78.98583984 55.64746094 C75.31888967 50.75879513 71.70531424 45.83093948 68.09130859 40.90307617 C65.24087658 37.02180188 62.3714295 33.15776718 59.45703125 29.32421875 C58.89588623 28.58461914 58.33474121 27.84501953 57.7565918 27.08300781 C56.6931934 25.68466199 55.62583191 24.28931841 54.55395508 22.89746094 C51 18.22072225 51 18.22072225 51 16 C38.46 16 25.92 16 13 16 C12.34 19.96 11.68 23.92 11 28 C10.23059936 31.75283776 9.44270203 35.49424971 8.6171875 39.234375 C8.39805695 40.2384137 8.17892639 41.24245239 7.95315552 42.2769165 C7.2632018 45.43522348 6.5691793 48.59261941 5.875 51.75 C5.40207242 53.91139898 4.92941385 56.07285684 4.45703125 58.234375 C3.3077903 63.49026783 2.1549034 68.74534863 1 74 C-4.28 74 -9.56 74 -15 74 C-14.30408767 65.81811555 -12.59297361 57.90829256 -10.83984375 49.90234375 C-10.52699556 48.4579761 -10.21454798 47.01352164 -9.90248108 45.56898499 C-9.08612593 41.79527954 -8.26438787 38.02276666 -7.44146729 34.25048828 C-6.60025902 30.38971215 -5.76422419 26.52781629 -4.92773438 22.66601562 C-3.29017585 15.10958093 -1.64692068 7.55440039 0 0 Z " fill="#4C4D4D" transform="translate(137,49)"/>
<path d="M0 0 C0.97040726 0.00888245 1.94081451 0.01776489 2.94062805 0.0269165 C4.04154282 0.02721863 5.14245758 0.02752075 6.2767334 0.02783203 C7.4643074 0.04847717 8.65188141 0.06912231 9.8754425 0.09039307 C11.70024895 0.09888275 11.70024895 0.09888275 13.56192017 0.10754395 C17.4545852 0.12996772 21.34633605 0.18017793 25.23872375 0.23101807 C27.87477819 0.25107518 30.51084702 0.26932731 33.14692688 0.28570557 C39.61537908 0.32985262 46.08314633 0.39892384 52.55122375 0.48101807 C52.55122375 5.76101807 52.55122375 11.04101807 52.55122375 16.48101807 C37.04122375 16.48101807 21.53122375 16.48101807 5.55122375 16.48101807 C4.89122375 17.80101807 4.23122375 19.12101807 3.55122375 20.48101807 C2.74069962 21.70743162 1.90164854 22.9153258 1.039505 24.10601807 C0.28552429 25.15003784 0.28552429 25.15003784 -0.48368835 26.21514893 C-1.02904236 26.96288574 -1.57439636 27.71062256 -2.13627625 28.48101807 C-2.70934509 29.27064941 -3.28241394 30.06028076 -3.87284851 30.87384033 C-8.7716582 37.6013628 -13.75688238 44.2628198 -18.76298523 50.91070557 C-24.92437022 59.09502942 -31.00035225 67.3411318 -37.06108093 75.60015869 C-38.51322907 77.56837636 -39.97878923 79.52609806 -41.44877625 81.48101807 C-40.10160806 84.34355164 -38.57104568 86.82388611 -36.68315125 89.35992432 C-36.13014343 90.1062915 -35.57713562 90.85265869 -35.00737 91.62164307 C-34.41053406 92.42086182 -33.81369812 93.22008057 -33.19877625 94.04351807 C-31.92265331 95.76350985 -30.64661394 97.48356365 -29.37065125 99.20367432 C-28.71774109 100.08168701 -28.06483093 100.95969971 -27.39213562 101.86431885 C-24.39906962 105.89442958 -21.42430195 109.93795022 -18.44877625 113.98101807 C-17.29652704 115.54488981 -16.14418269 117.10869146 -14.991745 118.67242432 C-12.51471453 122.034059 -10.03824336 125.39610496 -7.5620575 128.75836182 C-6.92590515 129.62203369 -6.28975281 130.48570557 -5.63432312 131.37554932 C-4.41543243 133.03039361 -3.19667536 134.68533635 -1.97807312 136.34039307 C-1.42828796 137.08676025 -0.87850281 137.83312744 -0.3120575 138.60211182 C0.41050232 139.58328979 0.41050232 139.58328979 1.1476593 140.58428955 C1.61083557 141.21020996 2.07401184 141.83613037 2.55122375 142.48101807 C2.92779114 143.20845215 3.30435852 143.93588623 3.69233704 144.68536377 C6.67831389 147.56976878 10.22292306 147.08446802 14.1566925 147.09039307 C14.99589737 147.10692932 15.83510223 147.12346558 16.69973755 147.14050293 C19.37947334 147.18907829 22.05864132 147.21037435 24.73872375 147.23101807 C26.55580976 147.25916988 28.37286921 147.28909619 30.18989563 147.32086182 C34.64362493 147.39483946 39.09703727 147.44435549 43.55122375 147.48101807 C43.66603088 146.860979 43.78083801 146.24093994 43.89912415 145.60211182 C47.39969645 126.80470547 51.39504476 108.14190244 55.55122375 89.48101807 C60.83122375 89.48101807 66.11122375 89.48101807 71.55122375 89.48101807 C70.91083642 98.055696 69.23305062 106.29683127 67.3910675 114.67633057 C67.07812832 116.11924916 66.76568254 117.56227483 66.45370483 119.00540161 C65.63826755 122.77107808 64.81621348 126.53527897 63.99269104 130.29919434 C63.15071594 134.15319079 62.31511982 138.00856947 61.47895813 141.86383057 C59.84255909 149.40424674 58.19915521 156.94311287 56.55122375 164.48101807 C49.10333135 164.92481538 41.65682839 165.26052823 34.1986599 165.46544933 C30.73260229 165.56393519 27.27568383 165.69682417 23.81489563 165.91436768 C1.60557622 167.27380494 1.60557622 167.27380494 -5.02287292 162.70788574 C-9.34979825 158.37196648 -12.27983798 153.42658944 -15.0617218 148.00856018 C-17.42998722 143.69301899 -20.46043037 139.87973032 -23.44877625 135.98101807 C-24.61577428 134.40375873 -25.78018609 132.82457962 -26.94096375 131.24273682 C-27.80673035 130.06783691 -27.80673035 130.06783691 -28.68998718 128.86920166 C-30.46754897 126.4555274 -32.24350211 124.04067685 -34.01908875 121.62554932 C-40.54709052 112.74964766 -47.10687042 103.89946582 -53.73002625 95.09429932 C-54.38164734 94.21378906 -54.38164734 94.21378906 -55.0464325 93.31549072 C-56.05978466 91.98987649 -57.11510686 90.69599265 -58.19487 89.42388916 C-59.785757 87.49615618 -61.21865155 85.6567884 -62.44877625 83.48101807 C-61.95306179 78.70884155 -57.5680301 74.50112347 -54.63627625 70.79351807 C-49.99704633 64.83146848 -45.46816004 58.813311 -41.07377625 52.66851807 C-35.85605023 45.38745456 -30.52078026 38.20325314 -25.13188171 31.04815674 C-18.97194693 22.86447165 -12.89638431 14.61979244 -6.83647156 6.36187744 C-6.14956238 5.43085205 -6.14956238 5.43085205 -5.44877625 4.48101807 C-5.03631149 3.79159119 -4.62384674 3.10216431 -4.19888306 2.3918457 C-2.44877625 0.48101807 -2.44877625 0.48101807 0 0 Z " fill="#AA172B" transform="translate(62.44877624511719,48.51898193359375)"/>
<path d="M0 0 C-1.74904251 3.62156392 -3.89616148 6.81225027 -6.25 10.0625 C-6.68111084 10.66175293 -7.11222168 11.26100586 -7.55639648 11.87841797 C-11.36048001 17.15012425 -15.20978816 22.38878365 -19.0625 27.625 C-19.65651611 28.43477295 -20.25053223 29.2445459 -20.86254883 30.07885742 C-23.50052973 33.66347 -26.15271044 37.22469698 -28.9296875 40.703125 C-29.35886475 41.24759277 -29.78804199 41.79206055 -30.23022461 42.35302734 C-31.34869064 43.76304094 -32.48419429 45.15949424 -33.62109375 46.5546875 C-35.17156801 48.87019145 -35.17156801 48.87019145 -35.09375 51.32421875 C-33.43204504 55.38946123 -30.79518368 58.52827626 -28.0625 61.9375 C-26.86802686 63.4621607 -25.67533887 64.98822152 -24.484375 66.515625 C-23.89205078 67.27294922 -23.29972656 68.03027344 -22.68945312 68.81054688 C-19.05858703 73.51598143 -15.66621976 78.39112495 -12.24560547 83.25 C-10.90149042 85.13839998 -9.53327496 87.00759575 -8.16015625 88.875 C-7.69440186 89.51284424 -7.22864746 90.15068848 -6.7487793 90.80786133 C-5.85332881 92.03303874 -4.95268392 93.25444169 -4.04614258 94.47143555 C-1 98.66303097 -1 98.66303097 -1 102 C-16.579048 103.66378183 -16.579048 103.66378183 -21.84765625 100.04296875 C-24.18057071 97.15117097 -26.09030172 94.18659714 -28 91 C-29.14608308 89.38875366 -30.29281008 87.77782312 -31.46044922 86.18212891 C-32.71849054 84.45751596 -33.94854841 82.7153965 -35.17578125 80.96875 C-39.08654809 75.43762542 -43.13913668 70.00980436 -47.1784668 64.57226562 C-48.29574284 63.06374473 -49.40809928 61.55156319 -50.51464844 60.03515625 C-51.44308743 58.76305444 -52.38219656 57.49859384 -53.33691406 56.24609375 C-56.06578429 52.51406557 -56.06578429 52.51406557 -55.75268555 50.06738281 C-54.92754557 47.80099121 -53.90610645 46.17822345 -52.48046875 44.234375 C-51.95880127 43.51733398 -51.43713379 42.80029297 -50.8996582 42.06152344 C-50.334646 41.2987207 -49.76963379 40.53591797 -49.1875 39.75 C-48.60508545 38.95368164 -48.0226709 38.15736328 -47.42260742 37.33691406 C-44.57780233 33.45766936 -41.70547188 29.59930012 -38.8203125 25.75 C-38.32055908 25.08258789 -37.82080566 24.41517578 -37.3059082 23.72753906 C-36.31096212 22.41005283 -35.30685628 21.09943379 -34.29370117 19.79589844 C-31.82761676 16.59704618 -29.63614801 13.45647176 -27.73046875 9.890625 C-21.02001423 -2.1299955 -12.99801542 -1.72171674 0 0 Z " fill="#AA172B" transform="translate(94,80)"/>
<path d="M0 0 C6.67846881 -1.07867592 13.41922076 -2.01061635 20 0 C25.23162379 3.82492954 28.2360056 9.87577157 31.42285156 15.38623047 C34.0667965 19.76797575 37.17029955 23.7938513 40.25 27.875 C41.41377571 29.45758723 42.57656448 31.04090077 43.73828125 32.625 C45.75368848 35.35078957 47.80308119 38.03822501 49.91796875 40.6875 C50.56427246 41.50758545 50.56427246 41.50758545 51.22363281 42.34423828 C52.34415796 43.7572899 53.48188239 45.15665711 54.62109375 46.5546875 C56 49 56 49 55.76879883 51.38842773 C54.93334176 54.22643479 53.88451513 55.90031166 52.078125 58.23046875 C51.47105713 59.02469238 50.86398926 59.81891602 50.23852539 60.63720703 C49.25420532 61.89960205 49.25420532 61.89960205 48.25 63.1875 C46.87742318 64.97933366 45.50635919 66.77232708 44.13671875 68.56640625 C43.44368652 69.47148926 42.7506543 70.37657227 42.03662109 71.30908203 C39.53761031 74.61093972 37.11201691 77.96032235 34.70532227 81.32983398 C33.09697895 83.5768299 31.46339236 85.80381192 29.828125 88.03125 C28.07809631 90.43325017 26.55193756 92.7670829 25.046875 95.34375 C23.18333211 98.3321341 21.98447111 100.11214851 19 102 C13.04076404 103.12580375 6.99363467 102.57631103 1 102 C1 98.03513337 2.85296201 96.05824625 5.125 93 C5.56585938 92.39478516 6.00671875 91.78957031 6.4609375 91.16601562 C7.96605186 89.10475324 9.48229336 87.05200604 11 85 C12.14342792 83.44806309 13.28665058 81.89597492 14.4296875 80.34375 C15.01596924 79.548479 15.60225098 78.75320801 16.20629883 77.93383789 C17.40218151 76.31116817 18.59733139 74.68795813 19.79174805 73.06420898 C22.56072148 69.30101067 25.33861061 65.54628017 28.15234375 61.81640625 C29.08112348 60.56539682 30.00953374 59.31411296 30.9375 58.0625 C31.36869141 57.50175781 31.79988281 56.94101563 32.24414062 56.36328125 C34.45865494 53.51239846 34.45865494 53.51239846 34.76660156 50.06835938 C33.90527134 47.74441364 32.82197263 46.10125975 31.33203125 44.12109375 C30.77515625 43.37384033 30.21828125 42.62658691 29.64453125 41.85668945 C29.03996094 41.05835693 28.43539062 40.26002441 27.8125 39.4375 C26.53756795 37.73191469 25.26283422 36.02618111 23.98828125 34.3203125 C23.33037598 33.44407227 22.6724707 32.56783203 21.99462891 31.66503906 C18.80293233 27.40058865 15.65321686 23.1054338 12.5 18.8125 C11.38595152 17.29778356 10.27138945 15.78344469 9.15625 14.26953125 C8.63675781 13.5626416 8.11726562 12.85575195 7.58203125 12.12744141 C6.48818035 10.65648203 5.38043827 9.19578799 4.26171875 7.74365234 C3.71128906 7.02773926 3.16085938 6.31182617 2.59375 5.57421875 C2.09552734 4.93444092 1.59730469 4.29466309 1.08398438 3.63549805 C0 2 0 2 0 0 Z " fill="#4C4D4D" transform="translate(162,80)"/>
</svg>
